<svg xmlns="http://www.w3.org/2000/svg" viewBox="0 0 140.93 47.86"><defs><style>.cls-1{fill:#424242;}.cls-2{fill:#47b280;}</style></defs><title>Asset 1logo-icon</title><g id="Layer_2" data-name="Layer 2"><g id="Layer_1-2" data-name="Layer 1"><path class="cls-1" d="M43.5,33.63a2,2,0,0,0-2.15.58c-.51.6-.86,1-1.08,1.24A12.71,12.71,0,0,1,31,39.27a14.27,14.27,0,0,1-5.67-.9A1.06,1.06,0,0,1,25,36.64l19-19.06,1.16-1.17v-5H37.57A1.32,1.32,0,0,1,36.49,9.3L38.4,6.58A20.91,20.91,0,0,0,31,5.29a20.1,20.1,0,0,0-14.75,6.13A20.11,20.11,0,0,0,10.11,26.2,20.12,20.12,0,0,0,16.24,41,20.1,20.1,0,0,0,31,47.12,20,20,0,0,0,43.86,42.7a3.53,3.53,0,0,0,1.35-2.77V36a2.52,2.52,0,0,0-1.67-2.37ZM17.93,26.2a12.64,12.64,0,0,1,3.83-9.26A12.57,12.57,0,0,1,31,13.1a18.5,18.5,0,0,1,4.42.41.9.9,0,0,1,.4,1.52L19.74,31.14a.82.82,0,0,1-1.36-.36A17.71,17.71,0,0,1,17.93,26.2Z"/><path class="cls-1" d="M97.16,13.59v32a1.54,1.54,0,0,1-1.53,1.53h-4a1.53,1.53,0,0,1-1.53-1.53v-32a1.53,1.53,0,0,1,1.53-1.53h4A1.54,1.54,0,0,1,97.16,13.59Z"/><circle class="cls-2" cx="93.83" cy="5.61" r="4.72"/><path class="cls-1" d="M7.05,2V44.71c0,1.12-.69,2-1.53,2h-4c-.85,0-1.53-.92-1.53-2V2C0,.91.68,0,1.53,0h4C6.36,0,7.05.91,7.05,2Z"/><path class="cls-1" d="M135.38,14.41a13.4,13.4,0,0,0-5.12-4.07,15.07,15.07,0,0,0-6.7-1.78c-1.41,0-2.31.4-2.72,1.19a2.6,2.6,0,0,0-.18.46,17.66,17.66,0,0,1,3.29-.3A16.2,16.2,0,0,1,135.38,14.41Z"/><path class="cls-1" d="M120.33,43a2.67,2.67,0,0,0,.42,1.13,2.7,2.7,0,0,0,2.24.73,15.25,15.25,0,0,0,8.31-2.6,19.53,19.53,0,0,0,3.75-3.09,16.1,16.1,0,0,1-11.1,4.2A17.09,17.09,0,0,1,120.33,43Z"/><path class="cls-1" d="M140.49,34.44a1.34,1.34,0,0,0-1-.48,1,1,0,0,0-.55.18,17.18,17.18,0,0,1-3.16,4.33c-.24.24-.49.47-.74.69a19.53,19.53,0,0,1-3.75,3.09,15.25,15.25,0,0,1-8.31,2.6,2.7,2.7,0,0,1-2.24-.73,2.67,2.67,0,0,1-.42-1.13,16,16,0,0,1-8.24-4.54,16.11,16.11,0,0,1-4.91-11.81,16.1,16.1,0,0,1,4.91-11.84,16.1,16.1,0,0,1,8.57-4.59,2.6,2.6,0,0,1,.18-.46c.41-.79,1.31-1.19,2.72-1.19a15.07,15.07,0,0,1,6.7,1.78,13.4,13.4,0,0,1,5.12,4.07l.41.39c.43.43.82.88,1.19,1.33a.79.79,0,0,0,.37.1,1.36,1.36,0,0,0,1-.38,1.21,1.21,0,0,0,.39-.91,4.41,4.41,0,0,0-1.36-2.63,15.87,15.87,0,0,0-3.51-2.92A21.53,21.53,0,0,0,122.06,6.2a20.53,20.53,0,0,0-14.22,5.16A19.51,19.51,0,0,0,101,26.62a19.8,19.8,0,0,0,6.52,15A20.21,20.21,0,0,0,122,47.07a21.23,21.23,0,0,0,12-3.76,25.3,25.3,0,0,0,4.84-4.21q2.07-2.34,2.07-3.63A1.5,1.5,0,0,0,140.49,34.44Z"/><path class="cls-1" d="M135.38,14.41a.86.86,0,0,0,.07.1A4.6,4.6,0,0,0,137,16.13c-.37-.45-.76-.9-1.19-1.33Z"/><path class="cls-1" d="M138,35.29a21.77,21.77,0,0,1-2.91,3.87c.25-.22.5-.45.74-.69A17.18,17.18,0,0,0,139,34.14,3.37,3.37,0,0,0,138,35.29Z"/><path class="cls-1" d="M50.47,8.83a.83.83,0,0,0,.07.13l.12.22-.15-.3Z"/><path class="cls-2" d="M50.22,7.35a1.5,1.5,0,0,0,.25,1.48A2.53,2.53,0,0,1,50.22,7.35Z"/><path class="cls-1" d="M84.68,44.33a2.52,2.52,0,0,0-.35-1.16q-1.44-2.4-2.81-4.92Q79,33.71,75.34,26.15l-1.77-3.59a1.19,1.19,0,0,1,.07-1.14l4.17-6.57q3.09-4.78,4.11-6.17A6,6,0,0,0,83.38,6a2.24,2.24,0,0,0-.46-1.23c-.3-.43-.59-.65-.87-.65s-1,.74-1.79,2.23Q78,10.47,73.37,18.13a1.17,1.17,0,0,1-2.05-.1L65.84,6.6a2.56,2.56,0,0,0-2.3-1.45H52.75a2.55,2.55,0,0,0-2.53,2.2,2.53,2.53,0,0,0,.25,1.48l0,.05.15.3,9,18h0l.07.13.28.58a1.11,1.11,0,0,1-.17.55q-4.92,8-9.3,14.11c-1.25,1.69-1.87,2.85-1.87,3.49a2.16,2.16,0,0,0,.45,1.19c.3.43.59.65.85.65.46,0,1.2-1,2.2-2.85q3.8-7,8-13.38a1.16,1.16,0,0,1,1.57-.35l.06.13a1.15,1.15,0,0,0,.21.13l.84,1.58,6.12,12.47A2.56,2.56,0,0,0,71.21,47H82.14a2.61,2.61,0,0,0,1.25-.33h0A1.51,1.51,0,0,0,84.68,44.33Z"/></g></g></svg>