<svg width="46" height="37" viewBox="0 0 46 37" fill="none" xmlns="http://www.w3.org/2000/svg">
<path d="M29.0732 18.7441L37.1011 14.1969L37.0262 23.6307L29.0732 18.7441Z" fill="white"/>
<path d="M28.9575 0L36.9564 4.59951L29.0443 9.47535L28.9575 0Z" fill="white"/>
<path d="M37.0261 23.6307L45.0001 18.8662L37.101 14.1969" fill="white"/>
<path d="M37.0798 14.2197L44.9158 9.51291L44.9855 18.9051" fill="#E7E7E7"/>
<path d="M29.0444 9.47535L37.0959 14.2157L36.9566 4.59952" fill="#E7E7E7"/>
<path d="M44.9237 9.5223L37.0956 14.2157L36.9563 4.59952" fill="white"/>
<path d="M1 23.6294C1 23.6294 1.27596 22.1069 2.27073 21.9567H14.459C14.459 21.9567 12.526 20.6971 13.593 18.6864C13.593 18.6864 14.7718 15.9246 21.1412 14.9843C21.1412 14.9843 25.5776 14.2331 26.6276 16.6382C26.6276 16.6382 27.7498 18.8367 25.8549 20.115L24.4002 18.8179C24.4002 18.8179 24.2162 18.6811 24.5749 18.3149C24.5749 18.3149 25.2097 17.3572 24.6577 16.877C24.6577 16.877 24.1741 16.1164 21.7851 16.4115C21.7851 16.4115 17.2291 17.2431 15.8204 19.5543C15.8204 19.5543 15.1713 21.0767 16.9939 22.0211H29.7249C29.7249 22.0211 29.3386 23.3745 28.7025 23.6414H28.4121V34.6634C28.4121 34.6634 22.2674 33.0712 18.8428 28.9545C18.8428 28.9545 18.6904 28.3912 19.6576 27.5877C19.6576 27.5877 22.115 25.0928 26.4515 24.233V23.5569H16.965V34.7479C16.965 34.7479 15.2803 34.3817 15.0596 33.2254V23.5703H11.4721V34.7894C11.4721 34.7894 5.73207 33.3421 1.90279 29.0954C1.90279 29.0954 1.51644 28.3201 2.71753 27.4187C2.71753 27.4187 5.35493 25.0646 9.49697 24.233V23.514L1 23.6294ZM9.28408 32.1993L9.2105 26.9747C5.98832 27.5568 5.17884 28.9666 5.17884 28.9666C5.75047 30.3952 9.28408 32.1993 9.28408 32.1993ZM26.1124 32.1993L26.0389 26.9747C22.818 27.5568 22.0072 28.9666 22.0072 28.9666C22.5775 30.3952 26.1124 32.1993 26.1124 32.1993ZM5.05137 36.9718C6.21172 37.2347 6.59806 35.5621 6.59806 35.5621C7.13159 34.1147 5.82537 33.5326 5.82537 33.5326C4.77541 33.2321 4.05791 35.2053 4.05791 35.2053C3.94621 36.8028 5.05137 36.9718 5.05137 36.9718Z" fill="white"/>
</svg>
