<svg width="142" height="23" viewBox="0 0 142 23" fill="none" xmlns="http://www.w3.org/2000/svg">
<path d="M17.2268 11.6517L22.153 8.8251L22.107 14.6893L17.2268 11.6517Z" fill="white"/>
<path d="M17.1558 0L22.0642 2.85916L17.209 5.89008L17.1558 0Z" fill="white"/>
<path d="M22.1069 14.6893L27 11.7276L22.1529 8.8251" fill="white"/>
<path d="M22.1399 8.83929L26.9483 5.91342L26.9911 11.7518" fill="#E7E7E7"/>
<path d="M17.209 5.89009L22.1497 8.83679L22.0642 2.85916" fill="#E7E7E7"/>
<path d="M26.9533 5.91927L22.1497 8.83679L22.0642 2.85916" fill="white"/>
<path d="M0 14.6885C0 14.6885 0.16934 13.7421 0.779769 13.6488H8.25894C8.25894 13.6488 7.07275 12.8658 7.72753 11.6159C7.72753 11.6159 8.45086 9.89908 12.3594 9.31457C12.3594 9.31457 15.0817 8.84763 15.726 10.3427C15.726 10.3427 16.4147 11.7093 15.2519 12.5039L14.3592 11.6976C14.3592 11.6976 14.2463 11.6126 14.4664 11.3849C14.4664 11.3849 14.8559 10.7896 14.5172 10.4911C14.5172 10.4911 14.2205 10.0183 12.7545 10.2018C12.7545 10.2018 9.95879 10.7187 9.09435 12.1554C9.09435 12.1554 8.696 13.1018 9.81444 13.6888H17.6266C17.6266 13.6888 17.3896 14.5301 16.9993 14.696H16.8211V21.5475C16.8211 21.5475 13.0504 20.5578 10.949 17.9988C10.949 17.9988 10.8555 17.6486 11.449 17.1491C11.449 17.1491 12.9569 15.5982 15.618 15.0637V14.6435H9.7967V21.6C9.7967 21.6 8.76292 21.3724 8.62745 20.6536V14.6518H6.42604V21.6259C6.42604 21.6259 2.90377 20.7262 0.553983 18.0863C0.553983 18.0863 0.316907 17.6044 1.05394 17.0441C1.05394 17.0441 2.67234 15.5807 5.21405 15.0637V14.6168L0 14.6885ZM5.08342 20.0158L5.03826 16.7681C3.06102 17.1299 2.56429 18.0063 2.56429 18.0063C2.91506 18.8943 5.08342 20.0158 5.08342 20.0158ZM15.4099 20.0158L15.3648 16.7681C13.3883 17.1299 12.8908 18.0063 12.8908 18.0063C13.2407 18.8943 15.4099 20.0158 15.4099 20.0158ZM2.48607 22.9825C3.1981 23.1459 3.43518 22.1062 3.43518 22.1062C3.76257 21.2065 2.96103 20.8446 2.96103 20.8446C2.31673 20.6578 1.87644 21.8844 1.87644 21.8844C1.8079 22.8774 2.48607 22.9825 2.48607 22.9825Z" fill="white"/>
</svg>
