<svg xmlns="http://www.w3.org/2000/svg" xmlns:xlink="http://www.w3.org/1999/xlink" viewBox="0 0 3558.13 2143.28"><defs><style>.cls-1{fill:none;}.cls-2{fill:#e7f3fe;}.cls-3{fill:#a2dff2;}.cls-4{fill:#96cfe0;}.cls-5{fill:#f37168;}.cls-6{fill:#2e5b9a;}.cls-7{fill:#f09959;}.cls-8{fill:#e38540;}.cls-9{fill:#75a1de;}.cls-10{fill:#a86b48;}.cls-11{fill:#3e6bab;}.cls-12{fill:#f0ceb4;}.cls-13{fill:#f7a96f;}.cls-14{fill:#a8ceff;}.cls-15{fill:#6695d6;}.cls-16{fill:#303c60;}.cls-17{fill:#d54a41;}.cls-18,.cls-21,.cls-22{opacity:0.5;}.cls-18{fill:url(#Безымянный_градиент_13);}.cls-19,.cls-21{fill:#9ec8ff;}.cls-20{fill:#fff;}.cls-23{fill:#f39892;}.cls-24{fill:#9cd499;}.cls-25{clip-path:url(#clip-path);}</style><linearGradient id="Безымянный_градиент_13" x1="1733.99" y1="1741.75" x2="1733.99" y2="2233.81" gradientUnits="userSpaceOnUse"><stop offset="0" stop-color="#9ec8ff"/><stop offset="1" stop-color="#e7f3fe"/></linearGradient><clipPath id="clip-path"><path class="cls-1" d="M262.1,689.68A142.24,142.24,0,1,0,404.34,831.91,142.23,142.23,0,0,0,262.1,689.68Zm0,217.58a75.35,75.35,0,1,1,75.35-75.35A75.35,75.35,0,0,1,262.1,907.26Z"/></clipPath></defs><g id="Layer_2" data-name="Layer 2"><g id="Слой_1" data-name="Слой 1"><path class="cls-2" d="M2972.35,728.39c144.89-150.64-565.43-674.85-1152-722.64-540-44-1253.52,169-529.15,483.93C1981.4,789.75,2896.64,807.1,2972.35,728.39Z"/><path class="cls-2" d="M137.26,622.69c338.3-428,1048.71,24.06,1656.56,133.87s1596.58-64.66,1594.11,417C3385.29,1687,3166,1975.89,1963.38,2113.86S210.13,1826.63,52.89,1374C-69.52,1021.57,46.85,737.08,137.26,622.69Z"/><path class="cls-3" d="M2456.81,1169.34c-49.65,100.79-111.9,376.21-128.88,391.3s-115.07,73.57-132,101.86-9.43,18.87-1.88,20.75,433.87,3.78,433.87,3.78-49-292.39-54.71-294.28S2456.81,1169.34,2456.81,1169.34Z"/><path class="cls-4" d="M2386.22,1685.66c78.29.55,160.92,1,206.4,1.2l-62.27-372.43c-33.22-64.39-73.54-145.09-73.54-145.09-6.26,12.71-12.72,28.19-19.26,45.58-6.46,279.72,33.83,358.13,3.57,408C2417.5,1661.78,2396,1679.18,2386.22,1685.66Z"/><path class="cls-3" d="M2718.26,1047.7c70.81,65.36,228.43,127.34,228.43,127.34s23.94,221.26,7.6,346.54-7.26,150.69-7.26,150.69l-340.36,2.9s-28.25-63.42-108.1-251.64c-50.84-119.83-41.76-254.19-41.76-254.19l197.9-89Z"/><path class="cls-4" d="M2622,1672.27h325s-9.08-25.42,7.26-150.69c13.46-103.16-.4-271.39-5.72-327.58L2919,1181.33c-74.2,21.38-117,132.06-129.54,240.21-8.42,72.37-128.31,143.61-206.74,182.84C2608.51,1653.49,2622,1672.27,2622,1672.27Z"/><path class="cls-4" d="M2663.54,1126.31s3.05,93.44,19,92.44,108.56-118.47,108.56-118.47l-15.75-7.53Z"/><path class="cls-4" d="M2639.58,1121s-20.13,86-30.13,84-23.48-89.38-23.48-89.38Z"/><path class="cls-5" d="M2635.84,1110.25l27.7,3,10.66,33s-24.36,28.52-24.86,40,5.36,54.49,5.68,93.49-14,194.24-7.5,289.35l6.5,95.1-55.68,2.17s-3-104.62,0-216.62,34.88-263.49,34.88-263.49l-12.58-38.51Z"/><path class="cls-6" d="M2542.36,820.6c-39.18,87.25,7.84,168.08,6.42,164.67S2608.07,838,2608.07,838Z"/><path class="cls-7" d="M2690.82,885.12l49.68,181.6a16.44,16.44,0,0,1-3.14,14.71c-11.66,14.36-28.25,43.89-61.72,53.36-6.51,1.84-14.53,2.34-21,2.36a14.19,14.19,0,0,1-14-11.48l-33.29-172.25Z"/><path class="cls-8" d="M2681.33,900.3l-18.17,7.44-55.83,45.68,21.43,109.18,8.54,43.54C2688.13,1074.45,2706.77,1022.75,2681.33,900.3Z"/><path class="cls-7" d="M2678.23,967.48c0,60.74-36.58,108.6-81.79,106.88s-73-35.91-81.94-113.09c-7.05-60.55,10.43-131,55.65-129.3S2678.19,906.73,2678.23,967.48Z"/><path class="cls-3" d="M2946.69,1175c65.75,14.85,78,148.41,99.35,289.26,2.46,16.22,15.09,153.44,15.09,153.44a42,42,0,0,1-23.89,37.73c-21.49,10.74-30.19,18.86-154.69,20.12-119.58,1.21-273.76-3.77-273.76-3.77s-1.36-44.5,10.9-66.24c18.45-32.7,207.52-79.65,225.13-82.16,2.51-35.22-17.37-162.63,10.06-249,18.86-59.43,39.14-90.55,64.55-98.69C2927.9,1173,2936.94,1172.84,2946.69,1175Z"/><path class="cls-4" d="M2676.41,1674.53c59,.89,139.85,1.73,206.14,1.06,124.5-1.26,133.2-9.38,154.69-20.12,25.15-12.58,26.41-34,26.41-34s-12.71-146-15.09-162.24C3034.72,1365,3019.77,1257,2985,1204.91c32.7,95.85,38,176.73,38.55,211.27.29,17.5-1.32,41.45-6.42,58.19-5.66,18.55-20.13,30.18-42.76,23.89-45.28-12.58-101.88,13.84-101.88,13.84s42.76-15.1,83-1.26,123.25,105.64,32.7,139.6C2960.48,1660.83,2794.51,1669.3,2676.41,1674.53Z"/><path class="cls-4" d="M2629.76,1609.77s16.76-28.5,51.14-28.5,31.86,56.17,26.83,74.62-25.15,19.28-25.15,19.28l-69.24-1.75Z"/><path class="cls-9" d="M1949.06,1676h577.67a29,29,0,0,0-28.95-29H1949.06Z"/><path class="cls-7" d="M2617.23,1605.24c-69.63-32-89.31-23.89-105.15-30-39.1-15.12-50-6-81.94,62.85-6.36,13.71,8.74,15.89,23.78,17.18s35.91-26.39,42-29.23,22.15-3.16,22.15-3.16-5-.43-13.82,14-18.49,19.46-6.79,20.45,15-18.07,36.37-12,17,26.37,71.46,24.61c51.67-1.67,90.27,3.5,92.17-29.16,1.81-31,6.55-46.14-22.31-54.07C2653,1580.53,2617.23,1605.24,2617.23,1605.24Z"/><path class="cls-10" d="M2618.17,1605.32c48.5-1.33,29.3,57.3,23.86,61.89s26.59,4,26.59,4,17-22.73,6.79-51.36-35.13-32-35.13-32l-22.3,9.88Z"/><path class="cls-6" d="M2666.44,1593.51c.38,7.46-11.47,14.13-26.48,14.91s-27.5-4.63-27.88-12.09,11.46-14.14,26.48-14.92S2666.05,1586.05,2666.44,1593.51Z"/><path class="cls-11" d="M2662.14,1590.36c.35,6.66-10.25,12.63-23.66,13.32s-24.56-4.14-24.91-10.8,10.25-12.63,23.66-13.33S2661.79,1583.69,2662.14,1590.36Z"/><path class="cls-12" d="M2653.44,1588.43c.25,4.8-7.38,9.09-17,9.59s-17.68-3-17.93-7.78,7.37-9.09,17-9.59S2653.19,1583.63,2653.44,1588.43Z"/><path class="cls-7" d="M2240,1609.73c35.8-19.89,79.56-13.26,95.48,6.63s18.56,33.15-17.24,33.15-107.41,2.65-119.35,1.32S2240,1609.73,2240,1609.73Z"/><path class="cls-7" d="M2286.52,1602.81c38.46-9.28,64.73,13.09,96.8,34.48,27.85,18.56,33.45,36.61,2.66,21.21-45.09-22.54-71.61-25.19-71.61-25.19Z"/><path class="cls-7" d="M2243.6,1620.23c-19.42,0-36.37-6.2-50.08-5s-57.12,45.69-50.26,49.12a16,16,0,0,0,1.6.68,23.4,23.4,0,0,0,27.75-9.73c6.14-9.86,16.13-21.33,27.77-17.23,19.42,6.86,39.8,6.2,39.8,6.2Z"/><path class="cls-13" d="M2246.62,1657.46c-19.89-8,11.93-74.26,22.54-74.26s50.39,31.83,50.39,31.83-9.35,5.28-41.1-5.3c-8-2.66-14.59,42.43-23.87,47.73S2246.62,1657.46,2246.62,1657.46Z"/><polygon class="cls-3" points="2630.26 1070.59 2639.58 1120.28 2612.34 1179.25 2582.74 1116.75 2630.26 1070.59"/><path class="cls-6" d="M2520.81,995.61c11.45,72.13,38.15,79.75,57.07,86.34s89.64-23.13,97.18-42.89c19.29-50.54-11.84-88.6-5.53-89.1s15.24,16.14,35.63,36.1c1.89,1.86,15,14.11,14.68,9.29-4.38-65.67,25.41-91.82,5.42-155.38-14.73-46.85-44.46-37.42-44.46-37.42s-27-36.49-87.31-20.64c-40.37,10.61-73.93,33.31-114.12,52s69.61,97.31,117.89,52.24,35.48,36.92,45.22,41.29,4.31,0,15.54,38.69-34,73.62-47.75,79.64c-43.85,19.25-52.92,13.11-66.15-2.3C2532.65,1030.06,2520.81,995.61,2520.81,995.61Z"/><path class="cls-7" d="M2706.47,938.32c-1.91,19.07-12.6,33.13-23.88,31.41s-14.31-16.36-16.94-37.63c-2.38-19.17,12.6-33.13,23.88-31.41S2708.39,919.25,2706.47,938.32Z"/><path class="cls-3" d="M2736.4,1051.74l49.4,46s-95.05,89.5-103.27,88.5-22.19-76-22.19-76Z"/><path class="cls-3" d="M2661.79,1109.14c-9.12,4.28-6.18,17.28-10.05,21.8s-6.17,5.75-9.29-.55-2.61-20.54-5-21.25-20.76,56.61-20.76,56.61,13.48-36.67,16.55-32.67.62,7.73,11.78,8.4,25.34-4,25.34-4Z"/><path class="cls-14" d="M1948.37,1676h308.55l-131-288.27a23.56,23.56,0,0,0-21.45-13.81H1825.35a9.21,9.21,0,0,0-8.38,13Z"/><path class="cls-9" d="M1795.35,1374h284.77a23.57,23.57,0,0,1,21.45,13.81l131,288.27H1918.37L1787,1387A9.21,9.21,0,0,1,1795.35,1374Z"/><path class="cls-15" d="M1943.8,1541.78c10.8,22.39,28.32,36.3,39.14,31.08s10.83-27.6,0-50-28.32-36.29-39.14-31.07S1933,1519.4,1943.8,1541.78Z"/><path class="cls-16" d="M841.39,1161.11c-4.8,0-9.52-.24-14.14-.47-3.84-.2-7.8-.4-11.61-.45a2.44,2.44,0,0,1,0-4.88c3.94.06,8,.26,11.82.46,29,1.46,58.94,3,88.13-53.14,12.67-24.37,26.46-71.74,23.63-125.07-2.32-43.67-17.12-105.8-74.47-153.75a2.43,2.43,0,1,1,3.12-3.73c58.7,49.07,73.84,112.58,76.21,157.22,2.89,54.31-11.22,102.66-24.17,127.58C894.18,1154.41,866.76,1161.11,841.39,1161.11Z"/><path class="cls-16" d="M832.29,1149.6c-1.13,0-2.26,0-3.4-.08a2.44,2.44,0,1,1,.24-4.87c1,0,2.1.08,3.14.08,30.23,0,58.16-21.41,77-59.24,31-62.2,34-164.24-21.49-230.85a2.44,2.44,0,0,1,3.75-3.12c56.82,68.2,53.8,172.56,22.1,236.14C893.93,1127.22,864.43,1149.6,832.29,1149.6Z"/><path class="cls-16" d="M723.86,838.84c87.48-67.9,169.64-31.91,199.08,60,27.49,85.84-7.75,270.31-138.25,238.17-135-33.26-146.27-74.59-145.24-134.67C640.27,954.35,660.74,887.83,723.86,838.84Z"/><path class="cls-3" d="M678.39,1111.09l-125,46.66s35,254,38,351-46,181.15-46,181.15h327s45-264.15,36-357.15-71-189.35-74-191.68-78-19.32-78-19.32Z"/><path class="cls-17" d="M898.34,1423.75s12.59,118,17.8,124,197.2,100,197.2,100l-279,19Z"/><path class="cls-17" d="M834.34,1141.07c31,.68,39.42,51.36,46.71,89S834.34,1141.07,834.34,1141.07Z"/><path class="cls-5" d="M781.34,1341.75c-17-61-108.34-230.87-108.34-230.87l-119.66,46.87s27.43,199.07,35.81,312L634.6,1689.9H781.34S798.34,1402.75,781.34,1341.75Z"/><polygon class="cls-17" points="612.46 1582.71 747.34 1551.75 736.33 1666.75 612.46 1582.71"/><path class="cls-17" d="M679.9,1614.75c-22-29.79-43.52-62.56-22.56-131s23-93,15.66-155-40.66-161-105.66-164c0,0-2.14,21.68-5.61,56.29,10.56,81.75,27.56,221.41,29.61,287.71,3,97-46,181.15-46,181.15l266,5.85S701.9,1644.54,679.9,1614.75Z"/><path class="cls-5" d="M908.34,1332.75c-9-93-71-189.35-74-191.68-1.85-1.43-31.2-8.47-53.36-13.64,6.52,15.36,75.22,179.09,72.36,246.53-3,70.79.09,315.94.09,315.94h18.91S917.34,1425.75,908.34,1332.75Z"/><path class="cls-18" d="M1570.21,1900.05c-3.36-1.64-6.27-2.9-9-4.45a20.94,20.94,0,0,1-6.73-6c-1.82-2.51-3.45-5.17-5.41-8.15-4.21,9.69-11.21,15.68-21.89,18.26,2.16.89,3.54,1.43,4.9,2a24.81,24.81,0,0,1,14.19,30.34c-2.81,9.51-12.57,19.25-27.5,17.22-12.76-1.73-20.68-12.87-21.12-23.23a24.9,24.9,0,0,1,15.46-24.42c1.24-.5,2.5-1,4.16-1.61-3.23-1.42-6.11-2.53-8.84-3.94a21,21,0,0,1-7-5.73c-1.94-2.47-3.6-5.16-5.49-7.91-1.33.61-1.5,2.07-2.23,3.1-.87,1.23-1.65,2.53-2.6,3.71a25.27,25.27,0,0,1-2.8,3,28.91,28.91,0,0,1-3.2,2.53,25.23,25.23,0,0,1-3.52,2,44.05,44.05,0,0,1-4.23,1.64c-1.27.45-2.57.84-4.37,1.42,1.75.56,3,.94,4.29,1.38a24.7,24.7,0,1,1-15.2-.09c1.14-.38,2.31-.67,4.17-1.2-5.66-1.81-10.71-3.38-14.79-7a29.76,29.76,0,0,1-8.56-12.94c-1.79.3-1.69,1.6-2.1,2.46-3.9,8.31-10.14,13.73-19.14,16-8.62,2.16-16.16-.14-23-5.28a26.62,26.62,0,0,1-8.26-10.64c-.4-.9-.33-2.19-1.83-2.54-5.48,12.89-14.94,19.84-29.33,18.41-11.63-1.16-19.74-9.15-23.38-22.4-1.31.62-1.26,1.88-1.57,2.94a26.51,26.51,0,0,1-49.51,4c-.93-2-1.63-4.21-2.45-6.36-1.5.45-1.37,1.89-1.71,2.91a25.72,25.72,0,0,1-5.95,10.08c-7.62,7.76-16.85,10.22-27,6.82-10.54-3.53-16.77-11.26-17.72-22.47-.92-10.8,3.7-19,12.87-24.75,1-.64,2.08-1.21,3.11-1.83.1-.06.14-.24.35-.64-1-1.29-2.77-1.47-4.08-2.35s-2.89-1.65-4.24-2.62a25.39,25.39,0,0,1-3.43-3,37.84,37.84,0,0,1-3.2-3.82c-1-1.33-1.82-2.76-2.9-4.43-.53.46-1.06.72-1.31,1.15a29.72,29.72,0,0,1-17.78,13.92,5.71,5.71,0,0,0-1,.61c.9,1.34,2.44,1.53,3.69,2.07a25.3,25.3,0,0,1,12.24,11,25.72,25.72,0,0,1-2.79,28.9c-6.82,8-18.07,11.18-27.57,7.83-10.48-3.71-17.27-12.89-17.46-23.63a25.16,25.16,0,0,1,15.35-24.12c1.23-.55,2.44-1.12,4.18-1.92-4.85-2.1-9.36-3.69-13-6.94s-5.93-7.18-8.06-11.21c-1.28-.21-1.31.79-1.72,1.31a14.39,14.39,0,0,0-.86,1.6,26.85,26.85,0,0,1-19.21,13.88c-10.74,2-19.67-1.61-26.7-9.86a41.12,41.12,0,0,1-3.59-5.75c-.53-.88-1-1.82-1.4-2.64-1.32,0-1.2,1-1.56,1.52s-.53,1.09-.81,1.63a26.1,26.1,0,0,1-10.79,11.32c-15.28,8.48-34.72.65-39.23-16.38-.34-1.31-.63-2.63-1-4-1.49.35-1.18,1.61-1.4,2.54-2,8.33-6.73,14.52-14.54,18-9.5,4.28-18.71,3.36-27-3s-11.38-14.75-9.8-24.86c1.35-8.62,6-15,13.81-19.11l2.79-1.5a1.37,1.37,0,0,0,.29-.34c-14.59-8-12.82-9.05-18.37-16.38-1.51,1.09-2,3-3.19,4.23s-2.33,2.79-3.66,4a28.84,28.84,0,0,1-4.34,3.27,33.8,33.8,0,0,1-4.87,2.39c-1.6.66-3.29,1.11-5.8,1.94,2.18.82,3.52,1.35,4.88,1.85a25.41,25.41,0,0,1,10.2,40.72,25.47,25.47,0,0,1-27.34,7.08,25.35,25.35,0,0,1-2.25-47c1.9-.84,3.87-1.5,6.08-2.35-.8-1.25-2-1-2.86-1.4s-2-.68-3-1.07a27.8,27.8,0,0,1-2.89-1.31,25.74,25.74,0,0,1-2.69-1.68c-1-.71-1.92-1.47-2.82-2.27a29,29,0,0,1-4.22-4.73,25.82,25.82,0,0,1-1.64-2.72c-.51-.93-1-1.89-1.41-2.84l-1.49-3.16c-1.55,2.14-1.87,4.31-3,6a47.63,47.63,0,0,1-3.8,5.08,26.92,26.92,0,0,1-4.83,4.08,25.57,25.57,0,0,1-5.66,2.82,27.19,27.19,0,0,1-6.19,1.31,31.14,31.14,0,0,1-6.33,0,25.59,25.59,0,0,1-15.27-7.29c-4.2-4-6.41-9.08-8.12-15.06-.64,1.79-1.11,3-1.53,4.27a25.94,25.94,0,1,1-36.19-31.65c1.07-.54,2.14-1.11,3.2-1.68.09,0,.1-.26.27-.72-1.48-1.08-3.39-1.54-5-2.52a39.46,39.46,0,0,1-4.51-3,32,32,0,0,1-4.16-4.15,29.09,29.09,0,0,1-3-4.53c-.94-1.71-1.67-3.53-2.58-5.51-1.35,1.16-1.67,2.67-2.31,4A27.6,27.6,0,0,1,836,1736.35c-11.53,4.44-24.11-1.08-30-9.14-6.48-8.82-7.38-18.29-2.75-28.25a12.29,12.29,0,0,1,.89-1.58c.25-.37.57-.69,1-1.25,4.79-.6,9.77-.19,14.73-.26s9.68,0,14.53,0h15.13l4.15,7.49,3.56-7.21c1.07-.1,2-.26,2.85-.27q20.88,0,41.76,0c2.48,0,2.48,0,4.83,1.73,2.33-1.69,2.33-1.69,4.82-1.74H2455.56c2.5,0,2.5.05,4.81,1.71,2.47-1.64,2.47-1.7,4.43-1.7q22,0,44,0a12.16,12.16,0,0,1,1.6.23l3.11,5,3.32-5.13h44.69c3,3.21,3.65,7.47,4.72,11.38,1.2.27,1.12-.55,1.21-1a25.74,25.74,0,0,1,4.24-10.09c3.52-.76,7.15-.28,10.76-.36s7,0,10.44,0H2614c5.84,6.45,7.09,18.83,1.81,28a26.24,26.24,0,0,1-25.2,13c-11.84-1.29-19.5-8.58-23.57-22.43-1.24.2-1.08,1.27-1.25,2.09a26.23,26.23,0,0,1-8.81,15,25.08,25.08,0,0,1-8.16,4.83c-1.82.64-3.65,1.24-6.12,2.08,2.1.76,3.62,1.33,5.15,1.85a23.32,23.32,0,0,1,12.09,9.15c5.84,8.7,6.45,17.87,1.28,27-5.07,8.94-13.15,13.38-23.37,12.77-10.41-.63-17.89-6.1-21.95-15.79a25.05,25.05,0,0,1,14.63-33c1.54-.52,3-1.12,4.83-1.79-8.59-3.91-11.21-1.72-21.89-17.36-5.83,8.67-4,9.34-18.39,17.69,1,.6,1.84,1.15,2.73,1.61,8.62,4.41,13.47,11.45,14.59,21,1.48,12.65-7.74,25.37-20.2,28-13.37,2.79-25.74-4-30.51-16.79-.58-1.55-1.06-3.13-1.78-5.26a26.75,26.75,0,0,0-1.12,2.79,28.11,28.11,0,0,1-6.6,12.26,27.09,27.09,0,0,1-43.58-5.6c-.76-1.41-1.48-2.84-2.49-4.78-2.4,5-4.67,9.35-8.41,12.77a33.52,33.52,0,0,1-12.92,6.91c-.15,1.07.45,1.24,1,1.44a30.29,30.29,0,0,1,8.05,4.1,25.77,25.77,0,0,1,8.94,28.8c-3.33,10.08-13,17-23.77,17.3a25.6,25.6,0,0,1-10.46-49.18c1.25-.51,2.51-1,3.69-1.47.22-.91-.29-1.15-.89-1.33a31.08,31.08,0,0,1-9-4.16,28.41,28.41,0,0,1-7.53-7.77c-.57-.84-1.24-1.62-2-2.63-2.56,3.52-4.56,7.19-7.91,9.61-3.14,2.27-6.53,4.21-9.79,6.28,14.81,7.19,18.78,21.61,16.26,31.09-2.81,10.6-11.71,18.89-22.65,20.15a26.39,26.39,0,0,1-23.77-9.65,27,27,0,0,1-5.41-11.69c-1.88.56-1.56,1.85-1.85,2.77-2.3,7.06-6.47,12.58-13.07,16.16a27.16,27.16,0,0,1-37.05-11.24c-.61-1.18-1.18-2.38-1.75-3.54-2,3.16-3.85,6.3-6,9.19a20.34,20.34,0,0,1-8.1,6.45c-3.28,1.47-6.77,2.5-10.37,3.79.45.8,1.4.63,2.12.81,6.71,1.69,12.24,5.1,16.12,11a25.05,25.05,0,1,1-43.33,25,24.86,24.86,0,0,1,9.71-32.78c3-1.72,6.38-2.65,9.82-4a8.84,8.84,0,0,0-1.71-.74,28.17,28.17,0,0,1-20.64-15.47,12.11,12.11,0,0,0-1.31-1.59c-2.48,4.11-4.65,8.07-8.09,11.1s-7.57,4.92-12,6.57c.49,1.48,1.76,1.68,2.76,2.11a23.49,23.49,0,0,1,8.8,6.26c6.92,8.05,8.87,17.14,4.78,27s-12,15.51-22.79,15.94-18.92-4.71-23.9-14.27c-7.24-13.9.28-29.12,12-34.56,1.21-.57,2.41-1.17,4-1.94-1.46-1.38-3.16-1.5-4.5-2.26s-2.74-1.29-4-2.1a32.14,32.14,0,0,1-4-3,31.25,31.25,0,0,1-3.11-3.29c-1-1.26-2-2.62-3.16-4.19-1.78,1.3-2.34,3.29-3.63,4.66a54.47,54.47,0,0,1-4.12,4.2,33.54,33.54,0,0,1-4.43,3.15c-1.64,1-3.38,1.83-4.94,2.65,0,1.28.79,1.52,1.42,1.84,8.85,4.49,13.64,11.87,14.59,21.55a24.3,24.3,0,0,1-5.92,18.53c-7.14,8.41-16.36,11.47-26.94,8.64-10.36-2.77-16.8-9.84-19-20.47a26,26,0,0,1,12.58-27.43c1.12-.65,2.63-.81,3.33-2.5-2.09-1.13-4.26-2.12-6.23-3.42a34.75,34.75,0,0,1-5.29-4.24c-1.71-1.67-3.15-3.63-4.82-5.6-2.47,2.73-4.67,5.61-7.35,8s-5.67,3.94-8.8,6.06c.82.64,1.56,1.3,2.38,1.84a26.14,26.14,0,0,1,11.51,15.2c3,10.68.15,19.86-7.89,27.17a26.35,26.35,0,0,1-42.19-9.79c-.66-1.63-1.26-3.3-2-5.21-1.38,1.34-1.46,2.93-2,4.29-4.06,10.38-11.58,16.41-22.65,17.77a26.82,26.82,0,0,1-26.49-14c-.78-1.47-1.48-3-2.4-4.84-.6,1-1.09,1.71-1.43,2.47-4.22,9.45-11.54,15-21.63,16.77-7.75,1.33-14.67-1.09-20.81-5.8a26,26,0,0,1-8-10.29c-.42-1-.87-1.89-1.51-3.28a15.17,15.17,0,0,0-1.31,2,28.3,28.3,0,0,1-19.31,17.12c-.86.24-1.69.57-3,1,1.64.54,2.87.93,4.08,1.35a24.77,24.77,0,0,1-4.62,48.08c-10.39,1.15-20-3.71-24.81-12.51a24.7,24.7,0,0,1,14.27-35.69c1.14-.37,2.3-.68,3.7-1.09-3.32-1.28-6.44-2.27-9.37-3.65a21,21,0,0,1-7.46-5.84c-2.06-2.55-3.86-5.31-5.8-8-8.25,12.84-10.19,12.77-20.87,17.54,1.7.74,3.21,1.36,4.69,2a25,25,0,1,1-21.07,0c1.47-.68,3-1.33,4.67-2.09-10-4.61-12.36-4.17-21-17.94-6.18,10.09-6.62,11.56-20.32,18,1.39.68,2.56,1.27,3.76,1.83a24.6,24.6,0,0,1,13.61,15.56c4.39,13.91-4.66,29-19,31.87a25.11,25.11,0,0,1-17.35-46.5c1.7-.93,3.49-1.7,5.7-2.75-2.08-1.3-4.13-1.7-5.85-2.7a46.3,46.3,0,0,1-5.7-3.69,31.13,31.13,0,0,1-4.39-4.57c-1.31-1.62-2.38-3.44-3.45-5-1-.31-1.32.34-1.58.83a30,30,0,0,1-16.53,14.11c-.55.2-1.06.49-2,1,1.52.78,2.68,1.41,3.86,2a24.52,24.52,0,0,1,12,11.91,25.19,25.19,0,1,1-34.29-11.55c1.43-.74,3.16-1,4.46-2.5-4.35-1.84-8.48-3.63-11.92-6.72-3.3-2.94-5.42-6.75-8-10.67-2.41,4.15-4.64,7.88-8,10.82s-7.34,4.75-11.47,6.38c.46,1.82,2.14,1.71,3.22,2.22a24.65,24.65,0,0,1,12.59,13.14,25.3,25.3,0,0,1-18.15,34.44c-13.24,2.76-29.61-6.07-30.24-24-.35-10.21,4.42-18,13.48-23,1.42-.78,2.94-1.4,4.83-2.29a79.44,79.44,0,0,1-8.27-4.18,33.38,33.38,0,0,1-6.48-5.61,79.79,79.79,0,0,1-5.32-7.63c-1.49,1-1.74,3-2.78,4.3s-2.13,3-3.37,4.26a28.44,28.44,0,0,1-4.09,3.58,36.39,36.39,0,0,1-4.65,2.78c-1.57.81-3.22,1.45-5.33,2.38l4,2c8.39,4.15,13.18,10.87,14.28,20.16a25.24,25.24,0,0,1-19.21,27.11c-14.28,3.33-29.86-6-30.92-23.09-.63-10.19,3.83-18.16,12.76-23.39,1.55-.9,3.21-1.61,4.85-2.42-.16-1.3-1.3-1.14-2-1.53-.92-.52-1.94-.84-2.9-1.29a24,24,0,0,1-2.41-1.26,21.66,21.66,0,0,1-2.24-1.54c-.84-.65-1.65-1.34-2.43-2a26.74,26.74,0,0,1-1.91-1.93,24.86,24.86,0,0,1-1.73-2.11c-.61-.86-1.13-1.79-1.7-2.68s-1-1.49-1.64-2.47c-1.62,1.17-2.15,2.94-3.2,4.3a35.56,35.56,0,0,1-3.2,3.82,32.94,32.94,0,0,1-4.17,3.47,30.78,30.78,0,0,1-4.32,2.48c-1.62.79-3.33,1.39-5,2.09.29,1.43,1.54,1.3,2.42,1.67a24.48,24.48,0,0,1,12.72,11.12c4.57,8.58,4.52,17.18-.59,25.47s-12.86,12.25-22.56,11.74a24.83,24.83,0,0,1-23.2-30,24.22,24.22,0,0,1,13.4-17.33C1566.71,1901.54,1568.24,1900.93,1570.21,1900.05Zm874.49-161c6,5.58,8.78,3.82,15.26,20.83.73-2,1.29-3.87,2.05-5.63a27.69,27.69,0,0,1,6.27-9.32,41.18,41.18,0,0,1,4.27-3.35c1.51-1.11,3.6-1.37,4.86-2.92-3.39-2.18-6.79-3.9-9.59-6.31s-5-5.51-7.63-8.51c-1.39,2-2.59,4.1-4.1,5.91a38,38,0,0,1-5.14,5.09C2449.1,1736.4,2447,1737.58,2444.7,1739.09Zm-1556.32-.35c5.13,2,9.08,4.38,12.27,7.88s4.92,8.13,6.48,12.77c.25-.3.38-.4.43-.54.21-.56.41-1.13.58-1.71a26.53,26.53,0,0,1,13.33-16.88,5.13,5.13,0,0,0,1.1-1.13c-3.1-2.25-6.25-4.1-8.84-6.55s-4.76-5.63-7.12-8.51C898.87,1733.58,898.87,1733.58,888.38,1738.74Zm179.16,76.36c3.92-11.37,2.92-12.07,15.1-22-2.92-2.08-6.06-3.91-8.68-6.3s-4.69-5.29-6.9-7.87c-2.62,2.74-4.87,5.65-7.67,7.87s-6.31,3.91-9.61,5.89a66.36,66.36,0,0,1,6.31,3.73,27.72,27.72,0,0,1,5.26,4.94,31.51,31.51,0,0,1,3.92,6.59A62.71,62.71,0,0,1,1067.54,1815.1Zm214,18.39c-1.36,1.63-2.45,3.07-3.68,4.38a29.73,29.73,0,0,1-3.64,3.37c-1.43,1.09-3,1.94-4.54,3s-3.33,1.17-4.77,2.78c1.19.67,2.14,1.11,3,1.7a64.22,64.22,0,0,1,6.14,4.56,23.78,23.78,0,0,1,6.44,10.23c.41,1.17.28,2.76,1.87,3.41a8.65,8.65,0,0,0,.57-1.26,27.17,27.17,0,0,1,13.45-17.38c.43-.24.69-.79,1-1.23-3-2-5.93-3.57-8.42-5.69S1284.2,1836.36,1281.51,1833.49ZM2298.85,1813c6.54-16,9.52-15,17.17-20.31-3-1.79-6.13-3.31-8.81-5.44s-5.1-5-7.79-7.77c-1.41,1.82-2.66,3.68-4.18,5.29a46.48,46.48,0,0,1-5.37,4.84c-1.74,1.35-3.7,2.44-5.63,3.69C2290.79,1798.76,2293.62,1798.88,2298.85,1813ZM1350,1847.49c-3.07-2.14-5.83-3.73-8.2-5.78s-4.5-4.7-6.69-7a92.41,92.41,0,0,1-6.88,6.85c-2.53,2-5.44,3.65-8.37,5.57a9.61,9.61,0,0,0,1.39,1.22,26.54,26.54,0,0,1,13.32,17.43,7.93,7.93,0,0,0,1.11,1.87c.78-2.32,1.32-4.37,2.15-6.29a27.72,27.72,0,0,1,2.83-5.12,32.44,32.44,0,0,1,4.21-4.71C1346.4,1850.11,1348.14,1849,1350,1847.49Zm681.34-12.32a8,8,0,0,0-1.3,1.14,34.86,34.86,0,0,1-12,10.22c-.42.22-.66.81-1,1.23,8.48,6.6,9.45,7.93,13.27,18,.16.4.4.77.92,1.76,1.37-4.83,2.87-8.58,5.33-11.91s6.1-5.74,9.67-8.35a93.81,93.81,0,0,1-8.09-5.36C2035.79,1840,2033.72,1837.53,2031.36,1835.17ZM960.58,1756.39c3.65-7.16,2.64-7.82,12.37-16.65-1.71-1.27-3.45-2.43-5.05-3.77s-2.82-2.73-4.24-4.07-2.2-3.51-4-4.8c-.6.68-1,1.09-1.38,1.56a32.17,32.17,0,0,1-11,9.22c-.59.3-1.47.5-1.32,1.5C952.94,1744.46,954.24,1744.1,960.58,1756.39Zm427.92,107.5c.69-.73,1.11-1,1.25-1.35a28.59,28.59,0,0,1,10.69-13.65,5,5,0,0,0,1-1.32c-2.44-1.71-4.77-3.12-6.83-4.85s-4-3.91-5.77-5.63c-1.55,1.36-2.88,2.58-4.27,3.72s-3,2.46-4.64,3.59c-1.42,1-2.93,1.9-4.46,2.87,2.77,2.51,5.42,4.69,7.8,7.13S1387.08,1860.11,1388.5,1863.89Zm-268-81.47c-1.49,1.5-2.8,2.93-4.24,4.22s-2.81,2.25-4.23,3.36-3.43,1.68-5,3.27c1.71,1.24,3.2,2.2,4.56,3.32a28.87,28.87,0,0,1,3.58,3.41,37.68,37.68,0,0,1,3.14,4.39c.91,1.47,1.65,3,2.62,4.88,1.94-3.17,3.4-6.15,5.42-8.68s4.64-4.65,7.09-7c-2.23-1.61-4.64-3.12-6.76-4.94S1122.64,1784.61,1120.49,1782.42ZM2420.41,1739a35.63,35.63,0,0,1-13.27-11.08c-1.47,1.78-2.64,3.32-3.95,4.74a46.53,46.53,0,0,1-3.92,3.77c-1.46,1.24-3,2.35-4.59,3.54a87.32,87.32,0,0,1,6.57,7.12,84.54,84.54,0,0,1,4.78,8.15C2413.43,1742.28,2414.39,1744,2420.41,1739Zm-442.33,98.27c-2.13,2.06-4,4-6.06,5.77s-4.31,3.15-6.5,4.72c2.54,2.55,5.1,4.7,7.11,7.27a78.13,78.13,0,0,1,5,8.18c1.93-3.07,3.51-6.21,5.7-8.84s4.94-4.65,7.51-7c-2.45-1.62-4.81-3-6.92-4.65S1980,1839.06,1978.08,1837.27Zm255.56-43.51c1.77,1.6,3.43,2.88,4.83,4.41a43.59,43.59,0,0,1,4.13,5.33c1.1,1.68,1.93,3.55,3.05,5.64.94-1.88,1.58-3.4,2.44-4.8a33.4,33.4,0,0,1,3.15-4.39c1.06-1.25,2.41-2.25,3.55-3.44s3.19-1.56,3.95-3.23c-.42-.45-.57-.74-.82-.87a34.69,34.69,0,0,1-10.62-8.25,5.8,5.8,0,0,0-1.54-.91A42,42,0,0,1,2233.64,1793.76ZM1442.43,1864c1.17-2.4,1.94-4.36,3-6.11a39.65,39.65,0,0,1,4.07-5.41c1.36-1.55,3-2.87,4.67-4.45-2.29-1.68-4.42-3.08-6.35-4.72s-3.83-3.7-5.81-5.63c-2,1.92-3.8,3.78-5.77,5.39s-4.3,3.11-6.52,4.69C1439.44,1856.33,1437.57,1855.3,1442.43,1864Zm494.14-16.12c-2.31-1.63-4.46-3-6.41-4.57s-3.89-3.6-5.93-5.51c-2,2-3.74,3.94-5.66,5.61s-4,3-6,4.58c2.4,2.5,4.82,4.58,6.7,7.07a89.64,89.64,0,0,1,5.15,8.64c1.12-2.22,2-4.31,3.16-6.19a31.68,31.68,0,0,1,3.89-5C1933,1850.88,1934.7,1849.5,1936.57,1847.83Zm-774.19-54.3a85.28,85.28,0,0,1,6.61,6.33,94.41,94.41,0,0,1,5.47,8c1.52-2.51,2.74-4.92,4.33-7s3.75-4.26,5.83-6.56c-1.92-1.53-3.85-2.93-5.62-4.5s-3.39-3.33-5.25-5.17c-1.93,1.73-3.63,3.41-5.49,4.88S1164.37,1792.16,1162.38,1793.53Zm1030.13-8.34-10.34,9.12c1.41,1.41,2.75,2.62,3.93,4s2.17,2.9,3.28,4.33,1.26,3.35,3.28,4.77c2.31-5.64,6.25-9.73,10.75-13.37Zm-654.33,63a32.69,32.69,0,0,1,11,13.84c1.67-2.69,2.93-5.1,4.55-7.23s3.76-4.22,5.85-6.52c-1.9-1.48-3.6-2.91-5.41-4.19s-3.12-3.61-5.35-4.67c-1.75,1.6-3.26,3.07-4.87,4.41S1540.38,1846.57,1538.18,1848.24Zm-42.35-9.13c-2.06,1.82-3.7,3.39-5.45,4.81s-3.54,2.65-5.16,3.85c2,2.2,4,4.07,5.68,6.19s3.21,4.67,5,7.29c1.55-2.4,2.85-4.77,4.51-6.85s3.89-4.15,6.07-6.44c-1.89-1.42-3.73-2.69-5.44-4.11S1497.69,1840.83,1495.83,1839.11Zm375.13.47-10.36,8.67c1.86,2,3.86,3.8,5.52,5.9s3,4.48,4.68,7c1.45-1.56,1.94-3.55,3.17-5s2.32-2.78,3.46-4.18,3.18-2.22,4-4C1877.91,1845.12,1874.52,1842.42,1871,1839.58Zm-53.94,22.3c1.75-2.77,3.27-5.18,4.79-7.57s4.2-3.76,5.72-6.34c-1.87-1.4-3.59-2.6-5.21-3.92s-3.35-2.94-5-4.46c-1.74,1.64-3.32,3.05-4.8,4.55s-3.81,2.32-5.29,4.41A35.46,35.46,0,0,1,1817,1861.88Zm-160.67-.93c1.46-2.31,2.68-4.56,4.22-6.55s3.6-4,5.63-6.19c-1.82-1.43-3.5-2.66-5.08-4s-3.11-2.82-4.78-4.35c-1.66,1.51-3.17,3-4.78,4.32s-3.26,2.57-5.11,4c1.9,2.06,3.75,3.83,5.29,5.82S1654.74,1858.51,1656.35,1861Zm63.76-12.69-10.06-8.26c-1.76,1.6-3.38,3-4.84,4.45s-3.67,2-4.72,3.93c1.91,2.09,3.76,3.86,5.31,5.86s2.79,4.22,4.39,6.68c1.5-2.31,2.73-4.52,4.28-6.48C1716.12,1852.33,1718.07,1850.46,1720.11,1848.26Zm-107.71.09-9.49-7.79-9.67,7.89c1.34,1.35,2.54,2.45,3.63,3.66s2.11,2.56,3.12,3.87,1.43,2.92,3.06,4A42.94,42.94,0,0,1,1612.4,1848.35ZM1003.2,1740c1.43,1.24,2.82,2.34,4.09,3.58s2.19,2.48,3.33,3.67,1.65,3.15,3.13,4.14l8.59-11c-1.45-1.26-2.93-2.72-4.59-3.94s-2.62-3.69-4.82-4.36Zm760.37,120.36c1.77-2.57,3.1-4.53,4.45-6.48s3.76-3.36,5.08-5.73c-1.73-1.3-3.24-2.52-4.83-3.62s-2.71-3.2-4.71-3.85l-9.32,7.69C1757.76,1851.82,1761.15,1855.21,1763.57,1860.31Zm589.58-109.19c2.23-4.57,5.65-7.74,9.33-11-1.75-1.34-3.25-2.57-4.82-3.68s-2.57-2.92-4.58-3.74c-2.55,3.13-5.85,5.25-8.27,8Zm-1125,53.82,7.89-10.36-8.4-7.3-8.43,6.87Zm911.15-17.19-7.82,6.77,7.38,9.39c1.38-1.81,2.62-3.47,3.9-5.08s3.37-2.83,4.42-4.87ZM1067.1,1749.16l5.44-7.38c-2.43-2.1-4.27-4.66-7.17-6.21-1.83,2-4.34,2.9-5.58,5.11C1062.27,1743.55,1064.61,1746.26,1067.1,1749.16ZM2092,1794.71a26.45,26.45,0,0,0-6.19-5c-1.2,1-2.26,1.88-3.2,2.84s-2.42,1.33-2.54,3c1.34,1.76,2.67,3.56,4.06,5.31a14.06,14.06,0,0,0,1.59,1.43Zm208.56-59c-2.23,2-4.52,3.66-6.1,6.08,1,1.23,1.8,2.29,2.61,3.37s1.54,2.11,2.5,3.43c1.27-1.54,2.35-2.76,3.34-4.05s2.68-2.33,3.59-4.14Zm-1025.28,58.94,6.43,7.48a63.62,63.62,0,0,0,5.45-7c-2.23-1.79-3.87-4-6.49-5Zm60.54-4c-2.12,1.65-4,2.8-5.41,5,1.73,1.65,2.82,3.76,4.87,5.46,1.69-2.29,3.69-4,4.88-6.68Zm695.36,9.84a19.85,19.85,0,0,0,4.73-5.49,18.31,18.31,0,0,0-5-4.07,11.18,11.18,0,0,0-4.41,3.85ZM1388.41,1799a18.42,18.42,0,0,0,4.29-5.36l-1.91-1.17-2-1.19-3.89,3.47Zm50.38-4.7c.94,1.45,1.79,2.8,3.5,3.54a15.38,15.38,0,0,0,3.56-4.37l-3.23-2.6A11.42,11.42,0,0,0,1438.79,1794.3Zm-317.49-56-4.11,3.54,3.11,3.5a9.88,9.88,0,0,0,3.93-4.73Zm856.2,52.88c-1.13,1-1.93,1.6-2.67,2.31-.18.17-.17.54-.33,1.17,1.14,1,1.85,2.7,3.51,3.65a7,7,0,0,0,3.19-4Zm-50,3.15a6.6,6.6,0,0,0-3.38-3.28,5,5,0,0,0-3.23,3l3.13,3.56C1925.87,1797.08,1926.47,1795.64,1927.5,1794.3Zm321.61-52.68-3.52-3a2.78,2.78,0,0,0-2.71,2.41c1,1.1,1.67,2.68,3.43,3.5Zm-1077.4-.49c.59.64,1.25,1.34,2.12,2.26,1.15-1.35,2.06-2.44,3.39-4l-1.77-1.55C1173.65,1738.65,1172.43,1739.42,1171.71,1741.13Zm378.3,49.46c-1.88,1.22-3.26,1.67-3.36,3.51l2.18,1.92a4.47,4.47,0,0,0,2.85-3.68Zm-54.49,5.86c1.56-.85,2.56-1.63,2.82-3.28l-2.43-1.93-2.73,2.52Zm324.42-3.19c-1.16-1-1.91-1.69-2.69-2.39-1.16.63-2.28,1.09-2.23,2.89l2.47,2.27Zm53.22.66c-2.44-3-2.63-3.05-4.69-.3l2.51,2.66Zm319.37-51c2.12-2.38,2.12-2.87.42-4.25-1.15-.94-1.53-.81-3.13,1.25Zm-536,48c-1.36.52-2.38,1.09-2.35,2.79l2.26,2,2.38-2.59Zm51.18,2.24c.87.91,1.56,1.62,2.22,2.32,2.5-1.77,2.8-2.29,2-3.31C1710.77,1790.78,1710,1790.9,1707.73,1793.19ZM1603,1791.08c-.73,1-1.49,1.53-1.57,2.19-.06.45.73,1.18,1.3,1.49s2-.71,1.82-1.41S1603.67,1792.07,1603,1791.08Zm161.2,3.7a5.88,5.88,0,0,0,1.11-1.79c.17-.71-1.2-1.71-1.85-1.37a2.77,2.77,0,0,0-1.27,1.55C1761.93,1794,1763,1794.88,1764.16,1794.78Zm-535.3-56.57a2.42,2.42,0,0,0-.62.12c-.65.36-1.21.8-.93,1.68a.44.44,0,0,0,.32.24c.88,0,1.27-.53,1.41-1.32A2.88,2.88,0,0,0,1228.86,1738.21ZM852.33,1764c0-12.32-8.44-24.47-24.94-25.36-13.4-.73-25.08,11.46-25.13,25.13a25,25,0,1,0,50.07.23Zm320.5,108.11a24.9,24.9,0,1,0-25.06,24.55A24.89,24.89,0,0,0,1172.83,1872.1ZM2432.32,1793a24.75,24.75,0,0,0-.09,49.49,24.75,24.75,0,1,0,.09-49.49Zm-1498.09.23a24.55,24.55,0,1,0,24.44,24.5A24.46,24.46,0,0,0,934.23,1793.24Zm1016.83,107a24.5,24.5,0,1,0,24.38,24.6A24.49,24.49,0,0,0,1951.06,1900.19Zm320.8-53a24.5,24.5,0,1,0,24.19,24.76A24.28,24.28,0,0,0,2271.86,1847.22Zm-880.69,77.67a24.4,24.4,0,0,0,48.8-.18c-.07-15.16-12.14-24.46-24.47-24.45S1391.09,1909.74,1391.17,1924.89Zm-295.94-77.5a24.33,24.33,0,1,0-.34,48.66c13.5,0,24-10.35,24.42-24.16C1119.13,1858.28,1109,1847.59,1095.23,1847.39Zm1473.69-83.5a24.24,24.24,0,1,0,48.48,0c0-13.29-9.93-23.9-24.21-24.29C2579.55,1740,2569,1750,2568.92,1763.89Zm-540.9,161a24.09,24.09,0,1,0-24.1,23.85A23.91,23.91,0,0,0,2028,1924.91Zm-641.36.1a24,24,0,1,0-24.23,23.66A24,24,0,0,0,1386.66,1925ZM773.21,1740a23.88,23.88,0,1,0,24,23.71A23.64,23.64,0,0,0,773.21,1740ZM2486.42,1794a23.81,23.81,0,1,0,23.82,24A23.7,23.7,0,0,0,2486.42,1794ZM756.25,1730.22a25.87,25.87,0,0,0,34.68-.34c9.72-8.91,10.89-24.41,3.38-33.64-3.44-.48-35.59-.62-41.81-.17A25.5,25.5,0,0,0,756.25,1730.22ZM2081.63,1925a23.72,23.72,0,0,0-23.83-24,23.71,23.71,0,0,0-.1,47.42A23.8,23.8,0,0,0,2081.63,1925Zm244.19-77a23.71,23.71,0,1,0,23.43,23.89A23.78,23.78,0,0,0,2325.82,1848Zm-1017,100.34a23.66,23.66,0,1,0-.18-47.32,23.66,23.66,0,0,0,.18,47.32ZM904.89,1817.77a23.66,23.66,0,1,0-23.66,23.61A23.65,23.65,0,0,0,904.89,1817.77Zm136.1,77.51a23.55,23.55,0,1,0-23.47-23.75A23.56,23.56,0,0,0,1041,1895.28Zm1070.51,6.16c-13.76.19-22.91,10.86-23.07,23.16a23.32,23.32,0,0,0,23.34,23.41c12.66-.11,23-9.82,23.32-23.45C2134.63,1911,2124.43,1901.26,2111.5,1901.44Zm-855.49.09a22.92,22.92,0,0,0-23.46,23.13,23.22,23.22,0,1,0,46.43.06C1278.94,1913.79,1271,1901.77,1256,1901.53Zm1413.38-136.72a23.2,23.2,0,0,0-22.54-24.08,23.18,23.18,0,0,0-1.36,46.34C2659.62,1787.55,2669.07,1775.73,2669.39,1764.81Zm-40.34-35.71a24.93,24.93,0,0,0,33.87.36,24.62,24.62,0,0,0,3.2-33.24c-3.76-.51-36-.51-39.84,0C2619.69,1703.4,2618.23,1718.93,2629.05,1729.1Zm-250.51,119.66a23,23,0,1,0,22.87,23.12A22.83,22.83,0,0,0,2378.54,1848.76ZM703.41,1728.93a24.79,24.79,0,0,0,34.43-.4c9.53-9.24,9.39-24.85,1.87-32.55H701C693.05,1705.54,694.16,1720.26,703.41,1728.93Zm1858.86,88.61a23,23,0,0,0-45.93.26,22.83,22.83,0,0,0,23.08,22.88C2552.08,1840.85,2562.38,1830.05,2562.27,1817.54ZM720.48,1741a22.94,22.94,0,0,0-22.92,23,23.19,23.19,0,0,0,22.81,22.76c12.22,0,23.28-10.48,22.93-23.11C743.49,1751.72,733.2,1741.08,720.48,1741ZM988.07,1848.9a22.83,22.83,0,1,0,22.79,22.8A22.72,22.72,0,0,0,988.07,1848.9ZM2164.76,1902a22.68,22.68,0,0,0-22.83,22.28,23,23,0,0,0,22.49,23.17,22.71,22.71,0,0,0,23-22.61A22.45,22.45,0,0,0,2164.76,1902Zm-963,45.35a22.65,22.65,0,1,0-22.58-23A22.51,22.51,0,0,0,1201.79,1947.37ZM850,1817.88a22.71,22.71,0,1,0-22.92,22.6A22.65,22.65,0,0,0,850,1817.88Zm1828.77-96.18c4.58,8.62,12,13.26,21.66,13,18.74-.4,29.19-20,20.33-35.89a5.39,5.39,0,0,0-5.43-3.06c-10.41.13-20.82,0-31.23.06-.75,0-1.5.07-2.45.12C2675.81,1702.32,2674.36,1713.39,2678.77,1721.7Zm-460.3,180.84a22.15,22.15,0,1,0,22.35,22A21.92,21.92,0,0,0,2218.47,1902.54Zm214-52.94a22.12,22.12,0,1,0,21.92,22A22.12,22.12,0,0,0,2432.5,1849.6Zm245.56-85.83a22.4,22.4,0,0,0,21.77,22.21c11.07.14,22.39-9.14,22.22-22.18a22,22,0,0,0-44,0ZM649.91,1727.65A23.45,23.45,0,0,0,684.47,1696H648.56A22.9,22.9,0,0,0,649.91,1727.65ZM1126,1924.4a22,22,0,1,0,44,.35c0-12.79-10.57-22.25-21.82-22A21.8,21.8,0,0,0,1126,1924.4ZM934.3,1849.78a21.95,21.95,0,0,0-.28,43.89c12.43,0,22.24-10.18,22-21.82A21.73,21.73,0,0,0,934.3,1849.78Zm1680.77-31.92a21.93,21.93,0,1,0-22,21.82A21.82,21.82,0,0,0,2615.07,1817.86Zm-855.94,160.81a21.88,21.88,0,1,0-43.76-.2,21.88,21.88,0,0,0,43.76.2Zm-54,.09a21.9,21.9,0,1,0-43.8-.39,21.9,21.9,0,0,0,43.8.39Zm106.88-.44a21.86,21.86,0,0,0-43.72.28,21.86,21.86,0,1,0,43.72-.28Zm-160.8.22a21.82,21.82,0,0,0-43.63-.16,21.42,21.42,0,0,0,21.69,22A21.65,21.65,0,0,0,1651.25,1978.54ZM666.9,1742.13a21.81,21.81,0,1,0,21.33,22A21.75,21.75,0,0,0,666.9,1742.13Zm909.64,214.62a21.92,21.92,0,0,0-21.91,21.9,21.61,21.61,0,0,0,22.07,21.63,21.39,21.39,0,0,0,21.36-21.79A21.69,21.69,0,0,0,1576.54,1956.75ZM773.66,1796.07a21.72,21.72,0,1,0,21.4,21.9A21.68,21.68,0,0,0,773.66,1796.07Zm1070.43,160.74a21.72,21.72,0,1,0,21.67,21.68A21.75,21.75,0,0,0,1844.09,1956.81Zm-300,21.93a21.66,21.66,0,1,0-21.8,21.44A21.55,21.55,0,0,0,1544.11,1978.74Zm727.28-75.63a21.59,21.59,0,1,0,21.77,21.48A21.77,21.77,0,0,0,2271.39,1903.11Zm-374.09,54a21.49,21.49,0,1,0,21.16,21.64A21.6,21.6,0,0,0,1897.3,1957.08Zm-781-32.21c.08-12.95-9.88-21.36-21.12-21.58a21.38,21.38,0,1,0-.38,42.75A21.07,21.07,0,0,0,1116.27,1924.87Zm353.31,32.31a21.19,21.19,0,0,0-21.37,21.36c0,12.77,9.87,21.3,21.27,21.4a21.38,21.38,0,1,0,.1-42.76Zm1261.77-239.72c2.87,8.82,9,14.31,18.13,15.72,9.51,1.47,17.37-1.92,22.57-10.09,5.07-8,4.82-16.24.06-24.41a5.2,5.2,0,0,0-5.12-2.88c-9.51.13-19,0-28.53.06-.74,0-1.49.09-2.55.16C2730.76,1702.62,2728.81,1709.63,2731.35,1717.46Zm-780,239.87c-11-.18-21.53,8.78-21.58,21.07a21.16,21.16,0,1,0,42.32.35C1972.41,1966.39,1961.74,1957.5,1951.36,1957.33ZM591.56,1715.25A22.1,22.1,0,0,0,609,1732.83c8.87,1.82,18.17-1.77,23-9.22,5.27-8.1,5.27-16.42.45-24.8a5.56,5.56,0,0,0-5.53-3c-9.06.13-18.13,0-27.19.06-.9,0-1.8.09-3,.15C592,1701.84,590.11,1708.08,591.56,1715.25Zm1894.81,135.3a21.17,21.17,0,1,0,21.15,21A21.13,21.13,0,0,0,2486.37,1850.55ZM1394.53,1978.38a21.05,21.05,0,1,0,21.15-20.92C1405.5,1957.14,1394.66,1965.7,1394.53,1978.38Zm-513.29-127.6a20.94,20.94,0,1,0,21,21.07C902.6,1861.17,893.57,1850.74,881.24,1850.78ZM1983,1978.31a20.86,20.86,0,1,0,21-20.67A21,21,0,0,0,1983,1978.31Zm-599.58.09a20.82,20.82,0,1,0-20.62,20.93A20.77,20.77,0,0,0,1383.44,1978.4Zm1369.42-235.25a20.77,20.77,0,1,0,20.94,20.57A20.87,20.87,0,0,0,2752.86,1743.15ZM2646,1797a20.78,20.78,0,1,0,20.91,20.66A20.84,20.84,0,0,0,2646,1797ZM2325.46,1903.9a20.81,20.81,0,1,0,20.77,20.74A20.6,20.6,0,0,0,2325.46,1903.9Zm-1284.23.19a20.37,20.37,0,0,0-20.78,20.65,20.63,20.63,0,1,0,41.25-.1A20.49,20.49,0,0,0,1041.23,1904.09ZM634,1764.16a20.53,20.53,0,0,0-41.06-.77,20.53,20.53,0,1,0,41.06.77Zm86.62,33.09a20.55,20.55,0,1,0,20.25,20.68A20.59,20.59,0,0,0,720.66,1797.25ZM2037.39,1978.5a20.45,20.45,0,1,0,20.66-20.37A20.56,20.56,0,0,0,2037.39,1978.5Zm-708.33.43a20.33,20.33,0,1,0-20.45,20A20.41,20.41,0,0,0,1329.06,1978.93ZM2821.69,1696c-9.36,0-18.73-.08-28.09-.17a4,4,0,0,0-3.41,1.85c-4.8,6.44-5.94,13.49-3.09,21a20.74,20.74,0,0,0,19.63,13.58c9.1-.2,15.75-4.44,19.78-12.74,3.26-6.72,2.28-17.46-4.39-23.35A2,2,0,0,0,2821.69,1696Zm-282.25,155.5a20.21,20.21,0,1,0-.09,40.42c11.46,0,20.39-9.53,20.13-20.17A20,20,0,0,0,2539.44,1851.51ZM553.56,1731.1a21.09,21.09,0,0,0,23.16-32.56,5.79,5.79,0,0,0-5.27-2.74c-8,.14-16,0-24,.06-.89,0-1.79.12-2.64.19C534.33,1706.16,537.15,1726,553.56,1731.1Zm1844.9,193.68a20,20,0,1,0-19.95,19.94A20.09,20.09,0,0,0,2398.46,1924.78Zm-286.54,33.91a19.89,19.89,0,1,0-.34,39.78,19.89,19.89,0,0,0,.34-39.78Zm-1264.7-86.77a19.89,19.89,0,1,0-20,19.7A19.77,19.77,0,0,0,847.22,1871.92Zm140.64,33a19.83,19.83,0,1,0,19.94,19.69A19.71,19.71,0,0,0,987.86,1904.89Zm287.7,73.66a19.78,19.78,0,1,0-19.87,19.86A19.87,19.87,0,0,0,1275.56,1978.55Zm1404.89-161.27a19.43,19.43,0,0,0,19,20.16c9.16.37,20-6.12,20.26-19.36.27-11.57-8.87-19.58-19.23-20A19.66,19.66,0,0,0,2680.45,1817.28Zm145.91-53.22a19.4,19.4,0,0,0-19.45-19.63c-9.81.11-19.2,7.2-19.33,19.28a19.14,19.14,0,0,0,19.42,19.63A19.46,19.46,0,0,0,2826.36,1764.06Zm-681,214.49a19.19,19.19,0,0,0,19.33,19.32c11.56,0,19.27-9,19.38-19.24a19.36,19.36,0,0,0-38.71-.08Zm-924.29,0a19.23,19.23,0,0,0-18.91-19.22,19.5,19.5,0,0,0-19.57,19.06,19.23,19.23,0,0,0,19.18,19.37A19,19,0,0,0,1221.06,1978.55Zm-535.34-161a19.25,19.25,0,0,0-38.49.22,19.25,19.25,0,1,0,38.49-.22Zm2175.35-121.71c-3.78,0-7.56,0-11.34,0a4.38,4.38,0,0,0-3.59,1.56c-4.71,5.4-6.49,11.57-4.6,18.53,2.67,9.79,10.95,15.56,21.15,14.74,8-.65,13.67-4.88,16.63-12.19s1.79-14.52-3.45-20.78a5.06,5.06,0,0,0-4.37-1.87c-3.47.09-6.95,0-10.43,0Zm-268,156.73a19.13,19.13,0,1,0,.15,38.25,19.13,19.13,0,0,0-.15-38.25Zm-179.78,71.77a19.05,19.05,0,1,0,38.1.41c.15-10.61-8.76-19.27-18.83-19.11A19,19,0,0,0,2413.33,1924.36ZM559.76,1783a19.19,19.19,0,0,0,18.91-19.26,19,19,0,0,0-19.19-18.89A18.75,18.75,0,0,0,540.66,1764,19,19,0,0,0,559.76,1783Zm-35.3-63.81c3.48-7.56,2.27-14.69-2.9-21.18a5.43,5.43,0,0,0-4.67-2.21c-6.64.11-13.29.18-19.92,0a6.35,6.35,0,0,0-5.74,2.86c-4.75,6.35-5.72,13.31-2.45,20.48,3.38,7.39,9.51,11,17.58,11.51C514.63,1730.33,521,1726.8,524.46,1719.2Zm390.8,205.33a18.9,18.9,0,1,0,18.83-18.75A19,19,0,0,0,915.26,1924.53Zm-141.51-71.65a18.83,18.83,0,1,0-.76,37.65,18.83,18.83,0,1,0,.76-37.65Zm1463.62,125.67c.14-10-8.38-18.49-18.44-18.68a18.59,18.59,0,0,0-19,18.54c-.13,10.79,8.21,18.67,18.6,18.89A18.73,18.73,0,0,0,2237.37,1978.55Zm-1089.62,18.66a18.62,18.62,0,1,0-18.43-18.57A18.61,18.61,0,0,0,1147.75,1997.21Zm1623.54-179.53a18.27,18.27,0,1,0-18.36,18.35A18.16,18.16,0,0,0,2771.29,1817.68ZM1665.14,2031.49a18.13,18.13,0,0,0,36.25.37c.2-10.15-8.21-18.48-17.92-18.3C1673.19,2013.21,1665.09,2022,1665.14,2031.49Zm-35.65,18.13a18,18,0,1,0,0-36.09,18,18,0,1,0,0,36.09Zm838.81-124.8a18,18,0,1,0,18-18.24A18,18,0,0,0,2468.3,1924.82Zm-178.65,54.06a18.2,18.2,0,0,0-18-18.36c-9.86-.13-18.23,8.37-18.15,18.24a18.07,18.07,0,0,0,36.14.12Zm641.28-261a18.59,18.59,0,0,0-4.37-20.41,5.47,5.47,0,0,0-4-1.66c-5.73,0-11.47.06-17.2,0a5.87,5.87,0,0,0-4.4,1.87,18.48,18.48,0,1,0,30,20.22ZM1772.18,2031.24a18,18,0,1,0,18.07-17.61A17.92,17.92,0,0,0,1772.18,2031.24Zm-53,.57a18,18,0,1,0,17.87-18.25A17.88,17.88,0,0,0,1719.19,2031.81ZM631.5,1817.91c.19-9.89-8.28-18.18-18.2-18.05a17.93,17.93,0,1,0,18.2,18.05Zm2247.32-53.77a18,18,0,1,0-18.11,17.62A17.84,17.84,0,0,0,2878.82,1764.14ZM1558.44,2031.47a17.95,17.95,0,1,0,35.89.17,17.95,17.95,0,0,0-35.89-.17Zm285.81-17.77a17.86,17.86,0,1,0,17.72,18A17.79,17.79,0,0,0,1844.25,2013.7ZM881.73,1906.85a17.48,17.48,0,0,0-18.32,17,17.76,17.76,0,0,0,17,18.73c9.64.53,18.2-7.42,18.63-17.22A17.83,17.83,0,0,0,881.73,1906.85Zm640.46,106.9c-8,.11-17.47,6.18-17.54,17.77a17.44,17.44,0,0,0,17.92,17.79,17.68,17.68,0,0,0,17.8-18A18,18,0,0,0,1522.19,2013.75ZM2664,1872.05a17.88,17.88,0,1,0-18.2,17.47A17.68,17.68,0,0,0,2664,1872.05ZM1112.77,1978.63a17.79,17.79,0,0,0-35.58-.28,17.79,17.79,0,1,0,35.58.28ZM465,1697.58a5.58,5.58,0,0,0-4-1.74c-5.44,0-10.88.05-16.32,0a5.65,5.65,0,0,0-4.06,1.66,17.88,17.88,0,0,0-5.77,10.55,18.16,18.16,0,0,0,16.08,20.84c11.68,1.07,20.26-8.36,20-16.77C470.82,1705.58,468.79,1701.19,465,1697.58ZM1897.27,2014c-8.38-.06-17.53,5.8-17.77,17.37-.19,9.67,6.78,17.43,17.32,17.81a17.59,17.59,0,1,0,.45-35.18ZM720.19,1854.12A17.59,17.59,0,1,0,738,1871.5,17.62,17.62,0,0,0,720.19,1854.12ZM524.3,1764a17.61,17.61,0,0,0-17.55-17.68,17.59,17.59,0,0,0-.17,35.18A17.66,17.66,0,0,0,524.3,1764Zm945.32,285a17.18,17.18,0,0,0,17.39-17.18,17.49,17.49,0,1,0-35-.25A17.14,17.14,0,0,0,1469.62,2049ZM1951,2014.32a17.21,17.21,0,1,0,17.32,17.21A17.09,17.09,0,0,0,1951,2014.32Zm391.7-35.93a17.1,17.1,0,1,0-17.14,17.37A17,17,0,0,0,2342.65,1978.39Zm-944.15,53a17.13,17.13,0,0,0,34.25.25,17.13,17.13,0,0,0-34.25-.25Zm1140.89-89.71a17,17,0,1,0-17.15-16.91A17,17,0,0,0,2539.39,1941.71Zm-1515.38,37a17.05,17.05,0,1,0,17-17A17.11,17.11,0,0,0,1024,1978.69Zm996.79,53.21a16.86,16.86,0,1,0-17,16.48A16.69,16.69,0,0,0,2020.8,2031.9Zm-641.36-.4a16.82,16.82,0,1,0-33.63.33c0,9.15,7.82,16.56,17,16.47A16.72,16.72,0,0,0,1379.44,2031.5ZM2807,1801a16.62,16.62,0,0,0-16.82,16.62c-.13,9.9,7.52,17,16.88,17A16.82,16.82,0,0,0,2807,1801ZM827,1908a16.67,16.67,0,0,0,.27,33.34c9-.1,16.42-6.85,16.67-16.82C843.52,1914.62,836.15,1907.93,827,1908Zm1873.07-52.86a16.56,16.56,0,1,0,16.51,16.38A16.59,16.59,0,0,0,2700.11,1855.15ZM2963,1695.83a7.57,7.57,0,0,0-5.81,2.05c-5.4,4.7-7.44,10.52-5.62,17.5a16.77,16.77,0,1,0,26.74-17.46,7.9,7.9,0,0,0-5.79-2.09c-1.65.12-3.32,0-5,0C2966,1695.85,2964.52,1696,2963,1695.83ZM576,1818a16.41,16.41,0,1,0-32.81-.35A16.41,16.41,0,1,0,576,1818Zm1465.42,213.55a16.4,16.4,0,1,0,16.41-16.36A16.23,16.23,0,0,0,2041.46,2031.53Zm872.35-284a16.25,16.25,0,0,0-16.3,16.45,16.31,16.31,0,0,0,32.61-.07A16.13,16.13,0,0,0,2913.81,1747.57Zm-1621.33,284.2a16.27,16.27,0,1,0,16.25-16.45A16,16,0,0,0,1292.48,2031.77Zm1102.23-53a16.21,16.21,0,1,0-32.41,0,15.91,15.91,0,0,0,16.15,16.07A16.08,16.08,0,0,0,2394.71,1978.74ZM666.65,1855.55a16.16,16.16,0,1,0,16,16.19A16,16,0,0,0,666.65,1855.55ZM395.8,1695.83c-3.5-.45-6.12,1.17-8.47,3.45a16.47,16.47,0,0,0-3.39,18.4c3.05,6.25,8.12,9.58,15.17,9.46,6.85-.11,11.92-3.38,14.57-9.62a15.86,15.86,0,0,0-2.88-17.7c-2.39-2.7-5.29-4.46-9.13-4a22.26,22.26,0,0,1-2.71,0A25.59,25.59,0,0,1,395.8,1695.83ZM988.49,1962.6a16,16,0,1,0,15.57,16.19A15.94,15.94,0,0,0,988.49,1962.6Zm1139.25,69.08a16,16,0,1,0-16,15.77A16,16,0,0,0,2127.74,2031.68ZM436.79,1763.77a15.94,15.94,0,1,0,31.87,0,16.07,16.07,0,0,0-16-15.85C443.34,1748.26,436.84,1755.32,436.79,1763.77Zm818.75,283.59a15.8,15.8,0,1,0-15.56-16.14A15.86,15.86,0,0,0,1255.54,2047.36ZM2609,1924.41a15.76,15.76,0,1,0-15.62,16A15.48,15.48,0,0,0,2609,1924.41Zm-1851.06.36a15.44,15.44,0,0,0,30.88,0,15.44,15.44,0,1,0-30.88,0Zm1674.86,38.62a15.21,15.21,0,1,0,14.87,15.69A15.23,15.23,0,0,0,2432.77,1963.39Zm-252.9,68.13a15.12,15.12,0,1,0-15.21,15.19A15,15,0,0,0,2179.87,2031.52Zm665.83-213.94a15.17,15.17,0,1,0,30.33,0,15.17,15.17,0,0,0-30.33,0ZM1217,2031.61a15.28,15.28,0,0,0-15.34-15.15,15.09,15.09,0,1,0,.34,30.17A15.24,15.24,0,0,0,1217,2031.61ZM2768.18,1872a15.06,15.06,0,0,0-15.14-15.36,15,15,0,0,0-.19,30.07A15.06,15.06,0,0,0,2768.18,1872Zm252.67-176.09a14.82,14.82,0,0,0-15.13,14.86c-.14,8.31,6.22,14.9,14.89,15.11a15,15,0,1,0,.24-30ZM934.36,1963.66a14.86,14.86,0,0,0-15.17,14.78A15.09,15.09,0,0,0,934,1993.63c7.23,0,14.68-5.17,15.25-14.84C949,1970.2,942.77,1963.76,934.36,1963.66Zm-320.78-77.23a14.73,14.73,0,1,0-14.79-14.67A14.7,14.7,0,0,0,613.58,1886.43Zm-107-83.34a14.72,14.72,0,0,0,.07,29.43,14.72,14.72,0,1,0-.07-29.43Zm2446.68-39.28a14.45,14.45,0,1,0,14.37-14.37A14.32,14.32,0,0,0,2953.31,1763.81Zm-720.23,267.83a14.46,14.46,0,1,0-14.44,14.31A14.25,14.25,0,0,0,2233.08,2031.64ZM345.78,1696.48a14.43,14.43,0,1,0,14.51,14.23C360.49,1703.38,354.16,1696.41,345.78,1696.48Zm2300.46,213.85a14.15,14.15,0,0,0-14.37,14.37,14.3,14.3,0,1,0,14.37-14.37ZM1133.75,2031.51a14.19,14.19,0,0,0,28.38.52,14.19,14.19,0,1,0-28.38-.52ZM706.33,1924.79a14.17,14.17,0,0,0,14,13.88,14,14,0,0,0,14.1-13.69,14,14,0,1,0-28.06-.19Zm1766,53.51a13.67,13.67,0,0,0,13.89,14.3c8.67.1,14.08-6.81,14.07-14.12a14,14,0,0,0-28-.18ZM412.8,1764.19a14,14,0,1,0-14.09,13.67A14,14,0,0,0,412.8,1764.19ZM881.61,1964.9a13.71,13.71,0,1,0,13.31,13.9A13.61,13.61,0,0,0,881.61,1964.9ZM2258,2031.27a13.57,13.57,0,1,0,13.75-13.24A13.43,13.43,0,0,0,2258,2031.27Zm669.14-213.52A13.31,13.31,0,1,0,2914,1831.2,13.4,13.4,0,0,0,2927.17,1817.75Zm-1818.84,214a13.33,13.33,0,1,0-13.41,13.08A13.25,13.25,0,0,0,1108.33,2031.74ZM2807.11,1858.4a13.31,13.31,0,1,0,13.09,13.36A13.19,13.19,0,0,0,2807.11,1858.4ZM1629.43,2072.25a13.22,13.22,0,1,0,13.08,13.41A13.3,13.3,0,0,0,1629.43,2072.25Zm120.94,13a13.18,13.18,0,1,0-13.06,13.45A13.23,13.23,0,0,0,1750.37,2085.24Zm-67.1-13a13.22,13.22,0,0,0-.14,26.44,13.22,13.22,0,1,0,.14-26.44Zm107.13.18a13.06,13.06,0,1,0-.28,26.12,13.23,13.23,0,0,0,13.13-12.94C1803.16,2079.07,1798.36,2072.57,1790.4,2072.43ZM1563.32,2085a13.09,13.09,0,1,0,13.45-12.57A13.18,13.18,0,0,0,1563.32,2085ZM559.8,1884.65a13,13,0,0,0,12.76-13.14c-.12-7.08-6.16-13.06-13.15-12.75a12.95,12.95,0,1,0,.39,25.89Zm1271.4,200.46a12.78,12.78,0,0,0,12.19,13.29,12.92,12.92,0,1,0,1.18-25.82A12.68,12.68,0,0,0,1831.2,2085.11Zm1230.62-374.3a12.79,12.79,0,1,0,25.57-.22,12.79,12.79,0,0,0-25.57.22ZM1522.4,2072.71a12.78,12.78,0,1,0,12.85,12.89A12.8,12.8,0,0,0,1522.4,2072.71Zm-1069-267.66a12.78,12.78,0,1,0,12.11,13.3A12.86,12.86,0,0,0,453.37,1805.05Zm2233.9,119.74a12.78,12.78,0,1,0,12.88-12.91A12.8,12.8,0,0,0,2687.27,1924.79Zm-135.42,53.76a12.6,12.6,0,1,0-12.64,12.65A12.41,12.41,0,0,0,2551.85,1978.55ZM2325.42,2019a12.59,12.59,0,1,0,12.66,12.59A12.42,12.42,0,0,0,2325.42,2019Zm-868.37,66.19a12.43,12.43,0,1,0,24.85.37,12.3,12.3,0,0,0-12.22-12.57A12.44,12.44,0,0,0,1457.05,2085.17Zm440.08-12.2a12.43,12.43,0,0,0-12.56,12.63,12.59,12.59,0,0,0,12.37,12.42c5.84.09,12.78-4.83,12.52-12.68A12.33,12.33,0,0,0,1897.13,2073Zm1136-308.65a12.39,12.39,0,0,0-24.77-.93,12.39,12.39,0,0,0,24.77.93Zm-2205.72,202a12.36,12.36,0,1,0,12.23,12.44A12.26,12.26,0,0,0,827.39,1966.28Zm-173.16-41.62a12.3,12.3,0,1,0,24.6,0,12.3,12.3,0,1,0-24.6,0Zm386.92,94.56a12.34,12.34,0,1,0-.24,24.67,12.34,12.34,0,0,0,.24-24.67ZM292.5,1698.71a12.25,12.25,0,1,0-.71,24.48,12.25,12.25,0,0,0,.71-24.48Zm1646.16,387.16a12.43,12.43,0,0,0,12.47,11.84,12.27,12.27,0,0,0,12-12.66,12.26,12.26,0,1,0-24.51.82Zm-523.23,11.7a12.1,12.1,0,1,0-11.89-12.3A12.26,12.26,0,0,0,1415.43,2097.57ZM357.75,1763.93a11.9,11.9,0,1,0-11.83,11.85A11.84,11.84,0,0,0,357.75,1763.93Zm1646,309.76a11.76,11.76,0,0,0,.1,23.52,11.76,11.76,0,1,0-.1-23.52ZM2390,2031.54a11.34,11.34,0,0,0-11.42-11.56,11.55,11.55,0,1,0,0,23.1A11.21,11.21,0,0,0,2390,2031.54Zm-1015.92,53.67a11.54,11.54,0,0,0-11.32-11.26,11.69,11.69,0,0,0-11.59,11.51,11.39,11.39,0,0,0,11.61,11.36A11.21,11.21,0,0,0,1374.06,2085.21Zm695,.47a11.35,11.35,0,0,0-10.93-11.58c-6.15-.32-11.7,5.16-11.71,11.35a11.32,11.32,0,0,0,11.25,11.24A11.09,11.09,0,0,0,2069.09,2085.68Zm792-225.29a11.32,11.32,0,1,0-.21,22.63,11.32,11.32,0,0,0,.21-22.63ZM976.89,2031.74a11.17,11.17,0,0,0,22.34-.15c-.09-6.76-5.21-11-11.23-11.27C982,2020.38,976.62,2025.72,976.89,2031.74Zm1616.48-42a11.16,11.16,0,1,0-11.33-11.12A11.12,11.12,0,0,0,2593.37,1989.79ZM506.88,1860.68a11,11,0,1,0-.23,22.07,11,11,0,0,0,.23-22.07Zm2235.19,64.12a10.89,10.89,0,0,0,11.11,10.83c6.4-.29,10.87-4.87,10.82-11.1a11,11,0,0,0-21.93.27Zm236.68-107a11,11,0,1,0-22,.28,11,11,0,0,0,22-.28ZM398.79,1807a10.83,10.83,0,1,0,10.79,10.6A10.73,10.73,0,0,0,398.79,1807Zm910.07,267.71a10.79,10.79,0,1,0,10.64,10.7A10.73,10.73,0,0,0,1308.86,2074.68Zm802.93,0a10.79,10.79,0,1,0,10.76,10.59A10.8,10.8,0,0,0,2111.79,2074.68ZM784,1978.61a10.61,10.61,0,1,0-10.61,10.61A10.55,10.55,0,0,0,784,1978.61Zm1658.92,53.07a10.45,10.45,0,0,0-10.59-10.58,10.45,10.45,0,0,0,.2,20.9A10.46,10.46,0,0,0,2442.91,2031.68Zm-1839.74-107a10,10,0,0,0,10.3,10.34A10.27,10.27,0,0,0,624,1924.38a10.56,10.56,0,0,0-10.61-10.22A10.35,10.35,0,0,0,603.17,1924.69Zm2524.72-223.94a10.2,10.2,0,1,0-.36,20.39,10.2,10.2,0,0,0,.36-20.39ZM1255.4,2075.55a10,10,0,0,0-9.63,10.06,10.12,10.12,0,0,0,9.9,9.83,10,10,0,0,0,10-10.1A9.84,9.84,0,0,0,1255.4,2075.55Zm1390.74-106.69a9.76,9.76,0,0,0-9.77,9.75,9.9,9.9,0,0,0,9.78,9.76,9.76,9.76,0,0,0,0-19.51Zm428.5-214.73a9.73,9.73,0,1,0,0,19.45,9.5,9.5,0,0,0,9.73-9.69A9.61,9.61,0,0,0,3074.64,1754.13ZM943.82,2031.67A9.65,9.65,0,0,0,934,2022a9.58,9.58,0,0,0,.22,19.15A9.66,9.66,0,0,0,943.82,2031.67Zm1230.4,49.8a10.05,10.05,0,0,0-4.84-5.19,10.44,10.44,0,0,0-12.72,2.76c-3.14,3.94-3,8.64.35,12.71,5.66-1.27,11.59-1,17.33-2.93C2175.35,2085.05,2175.3,2084,2174.22,2081.47Zm632.72-165.8a9,9,0,1,0,.23,18,9,9,0,0,0-.23-18ZM1202,2076.45a9,9,0,1,0,8.86,9.05A9.09,9.09,0,0,0,1202,2076.45Zm1720.81-204.71a9,9,0,1,0-18,.17,9,9,0,0,0,18-.17ZM720.76,1969.88a8.62,8.62,0,0,0-9.16,8.6,8.85,8.85,0,0,0,8.43,9,8.71,8.71,0,0,0,9.11-8.67A8.5,8.5,0,0,0,720.76,1969.88ZM568,1924.64a8.33,8.33,0,0,0-8.35-8.31,8.55,8.55,0,0,0-8.57,8.63,8.68,8.68,0,0,0,8.66,8.12A8.44,8.44,0,0,0,568,1924.64Zm2453-115.22a8.4,8.4,0,1,0-.28,16.79,8.4,8.4,0,0,0,.28-16.79ZM455.38,1879.18a2.56,2.56,0,0,0,3.31-.44c2.78-2.58,3.92-5.71,2.91-9.38a8.73,8.73,0,0,0-7.18-6.69,8.49,8.49,0,0,0-8.8,3.28,27.85,27.85,0,0,0-2.31,4.64C447.23,1874.24,451.5,1876.44,455.38,1879.18Zm433.74,152.37a7.93,7.93,0,1,0-8,7.92A7.83,7.83,0,0,0,889.12,2031.55Zm259,46a7.92,7.92,0,1,0,7.71,7.92A7.88,7.88,0,0,0,1148.14,2077.55Zm1333.42-44.48c3.78-.82,7.39-2.37,11.33-2.62.9,0,1.75-1,2.6-1.46-2.5-5.73-6.83-8.14-11.82-6.7a9.34,9.34,0,0,0-5.6,4.31,7.21,7.21,0,0,0-1,6.36C2479.82,2033.56,2479.8,2033.46,2481.56,2033.07ZM673.24,1978.3a6.69,6.69,0,0,0-6.81-6.43,6.62,6.62,0,0,0-6.64,7,6.73,6.73,0,1,0,13.45-.59Zm2508.7-274.12a6.58,6.58,0,0,0-7.1,6.54,6.68,6.68,0,0,0,6.24,7,7,7,0,0,0,7.21-6.59A6.84,6.84,0,0,0,3181.94,1704.18Zm-54.08,53a6.7,6.7,0,0,0-7,6.66,6.63,6.63,0,0,0,6.93,6.7,6.54,6.54,0,0,0,6.53-6.63A6.62,6.62,0,0,0,3127.86,1757.19ZM1095.41,2078.82a6.68,6.68,0,0,0-.89,13.33,6.68,6.68,0,1,0,.89-13.33Zm-268-53.49a6.22,6.22,0,0,0-.46,12.44,6.23,6.23,0,1,0,.46-12.44ZM1582.71,2140a4.6,4.6,0,0,0,.25-1.32,6.57,6.57,0,1,0-13.11.32c.17,2,1.11,3,3.11,3.08,2.84.08,5.69,0,8.79,0C1582.23,2141.08,1582.52,2140.56,1582.71,2140Zm-60,3.22c.45,0,.91,0,1.36,0,2.35-.13,3.61-1.15,4.12-3.39a5.79,5.79,0,0,0-2.1-6.06,6.09,6.09,0,0,0-6.41-.52,5.52,5.52,0,0,0-3,5.21c0,3,1.57,5.15,4.65,4.77a12.14,12.14,0,0,1,1.35,0ZM1633,2132.77a6.66,6.66,0,0,0-8,.56,9.12,9.12,0,0,0-2.14,3.34,3.94,3.94,0,0,0,.85,4.46c3.79,0,7.79.47,11.72-.32C1636.34,2136.72,1635.6,2134.4,1633,2132.77Zm-591.74-52.87a5.55,5.55,0,0,0-5.77,5.58,5.56,5.56,0,0,0,11.12,0A5.58,5.58,0,0,0,1041.28,2079.9Zm1170.3,3.72a20.62,20.62,0,0,0,2.19-.42c.87-.18,1.74-.41,2.63-.52,3-.37,5.94-.66,8.9-1a1.44,1.44,0,0,0,.78-2.43c-5.12-6.13-14.56-3.6-16.53,2.91a3.74,3.74,0,0,0,.18,1.35A11.39,11.39,0,0,0,2211.58,2083.62Zm-521.51,55c.48-2.16-.61-3.76-2-5.21a6.36,6.36,0,0,0-4.93-1.86,6.57,6.57,0,0,0-4.88,2,5.51,5.51,0,0,0-1.66,5.25C1681.15,2139.56,1687,2139.46,1690.07,2138.58Zm-220.66,3.51c.89,0,1.79,0,2.68,0a2.82,2.82,0,0,0,3-2.7,5.47,5.47,0,0,0-2.65-5.73,5.05,5.05,0,0,0-5.52-.15,5.43,5.43,0,0,0-2.91,5.61c.2,2,1.08,2.84,3.18,3,.74,0,1.49,0,2.24,0Zm-51.24-7.85a4.74,4.74,0,0,0-5.82.6,6.36,6.36,0,0,0-1.53,2.66,3,3,0,0,0,.93,3.42,22.33,22.33,0,0,0,8.1-.08C1420.76,2137.2,1420.31,2135.63,1418.17,2134.24Zm1287-160.79c.17-.06.2-.5.42-1.06a8.21,8.21,0,0,0-13.65,4.72C2697,1976.78,2701,1974.89,2705.2,1973.45ZM1743.53,2135.8c-1.35-3.25-3.62-4.88-6.64-4.66a7.32,7.32,0,0,0-4.48,1.86c-.86.78-1.85,1.56-1.49,3A32.48,32.48,0,0,0,1743.53,2135.8Zm-755.2-54.37a4.07,4.07,0,1,0-.48,8.13,4.07,4.07,0,0,0,4.36-4.06A4,4,0,0,0,988.33,2081.43Zm1980.94-216.52a6.91,6.91,0,0,0-5.19.83c-2.64,1.61-3.6,4.12-2.39,6.85a76,76,0,0,0,10.71-5.27C2971.88,1865.53,2970.57,1865.18,2969.27,1864.91Zm-2192,165.5c-1-3.16-4.3-4-6.83-1.69a1.31,1.31,0,0,0,.26,2.25c2.08.62,3.92,2.27,6.6,1.51A7.18,7.18,0,0,0,777.22,2030.41Zm589.54,107.64a2.87,2.87,0,0,0-1.56-3.25,5.38,5.38,0,0,0-2.89-.89,5.59,5.59,0,0,0-2.76,1.3,2.34,2.34,0,0,0-.92,2.88A24.38,24.38,0,0,0,1366.76,2138.05Zm418.49-4.46a32.81,32.81,0,0,1,3.72-.79c1.32-.13,2.67,0,5.07,0C1790.11,2130.16,1788,2130.47,1785.25,2133.59Zm1071.75-214c1.07-.18,2.14-.3,2.71-1.59C2857.45,1918.2,2857.45,1918.2,2857,1919.61ZM1309.14,2135c-.12-.07-.26-.21-.36-.19a3.11,3.11,0,0,0-.62.28l.36.2Z"/><rect class="cls-6" x="126.75" y="1674.11" width="3181.17" height="31.58" rx="15.31"/><rect class="cls-19" x="1774.52" y="143.83" width="373.28" height="153.82" rx="15.91"/><path class="cls-19" d="M1819.6,274.45v84.86l97.8-97.79S1821.59,274.45,1819.6,274.45Z"/><rect class="cls-20" x="1793.82" y="159.08" width="334.67" height="123.32" rx="13.49"/><path class="cls-19" d="M1976.08,189.58H1824.91a6.63,6.63,0,0,1,0-13.26h151.17a6.63,6.63,0,1,1,0,13.26Z"/><rect class="cls-19" x="1818.28" y="207.48" width="287.75" height="7.45" rx="3.69"/><rect class="cls-19" x="1818.28" y="221.91" width="287.75" height="7.45" rx="3.69"/><rect class="cls-19" x="2031.7" y="262.51" width="16.21" height="14.59" rx="3.51"/><rect class="cls-19" x="2061.16" y="262.51" width="16.21" height="14.59" rx="3.51"/><rect class="cls-19" x="2090.63" y="262.51" width="16.21" height="14.59" rx="3.51"/><path class="cls-14" d="M1345.42,1676H767.75A37.07,37.07,0,0,1,804.82,1639h540.6Z"/><path class="cls-14" d="M1346.11,1676H1037.56l131-288.27A23.58,23.58,0,0,1,1190,1374h279.09a9.21,9.21,0,0,1,8.38,13Z"/><path class="cls-9" d="M1469.13,1374H1214.36a23.57,23.57,0,0,0-21.45,13.81l-131,288.27h284.23L1477.51,1387A9.21,9.21,0,0,0,1469.13,1374Z"/><path class="cls-15" d="M1323,1534.45c-10.8,22.38-28.32,36.29-39.14,31.07s-10.83-27.59,0-50,28.33-36.3,39.14-31.08S1333.81,1512.07,1323,1534.45Z"/><path class="cls-7" d="M733.58,953.81s-26.21,133.82-55.19,157.28,66.68,136.54,99.79,107.57,2.31-92.4,2.31-92.4-17.94-11,12.41-81.4-51.35-122.79-51.35-122.79Z"/><path class="cls-8" d="M741.55,922.07l-8,31.74s-3.65,18.62-9.72,43.18c11.32,52.84,32.49,87.21,51.43,109.06.56-12.18,4.74-31.35,17.61-61.19C823.26,974.5,741.55,922.07,741.55,922.07Z"/><path class="cls-7" d="M899.34,1004.75c-17.62,48.58-60.67,87.58-88,78.58-44.66-14.7-77.16-49.6-69.48-126.76,9-90.87,79-101.3,120-89.68S918.83,951,899.34,1004.75Z"/><path class="cls-17" d="M673,1110.88l-42.24,16.55,66.58,85.32-19,34s68.57,51.48,89.41,151.23,18.57,184.73,18.57,184.73,5.11-202.29-5-241C761.76,1266.75,673,1110.88,673,1110.88Z"/><path class="cls-17" d="M781,1127.43s52.71,135.32,61.07,173.4S852.1,1525,852.1,1525s24.24-162.25,17.24-210.25-17-91.37-17-91.37l-32-23.63s-6.05-64.35-9.45-65.19S781,1127.43,781,1127.43Z"/><path class="cls-7" d="M750.22,1623.57c102.52-31.07,90.1-46.6,127.38-29s84,29.56,62.13,35.21-54.88-12.43-54.88-12.43,5.17,28-13.47,36.25S770,1664.89,723.86,1652,750.22,1623.57,750.22,1623.57Z"/><path class="cls-3" d="M747.34,1618.75h20.41l-10.21,58s-40.2-6-37.2-10S747.34,1618.75,747.34,1618.75Z"/><path class="cls-5" d="M553.34,1157.75c-40,70-52.69,108.18-85.29,239.18s-45.71,190.6-9.71,207.82c29.79,14.25,246.69,79.3,273,71.29,12,.68,30.42-61.29,30.42-61.29l-197.42-88s57.14-136.4,67-226-34-143-56-143Z"/><path class="cls-7" d="M760.62,962.62c-9.66,30.32-5.52,36.51-18.89,39.34s-25.58-10.44-29.53-29.08,3.68-36,17-38.88S766.4,944.46,760.62,962.62Z"/><path class="cls-16" d="M917.78,907.41c-52.33,93-156.27,79.34-219.44,47.34-51.5-26.09,146.92-124.91,146.92-124.91Z"/><path class="cls-16" d="M747.34,829.84C728,771.35,648.47,785.18,612.46,863S631.56,992.89,665,973.82,747.34,829.84,747.34,829.84Z"/><path class="cls-21" d="M1867.12,727.87a463.05,463.05,0,0,0,13.93-71.16l-73.46-33.07q.56-10.44.57-21a391.93,391.93,0,0,0-4.25-57.59l70-39.85a461.36,461.36,0,0,0-20.63-69.51l-80.42,4.86A389.15,389.15,0,0,0,1733,372.67l43.48-67.8a467.94,467.94,0,0,0-50.63-52l-68.92,41.66a389.6,389.6,0,0,0-66.78-41.67l7-80.27a460.8,460.8,0,0,0-68.93-22.46l-41.69,68.94a392,392,0,0,0-67.76-5.89c-3.59,0-7.17.06-10.73.16l-31.11-74.3a464,464,0,0,0-71.51,12l-4.87,80.4a387.52,387.52,0,0,0-72.21,31.39l-62.07-51.32a466.91,466.91,0,0,0-57.64,44l33,73.45a391.28,391.28,0,0,0-49.37,61.26l-78.85-16.61a462.45,462.45,0,0,0-30.67,65.7l63.41,49.69a388,388,0,0,0-15.13,77.25l-77.49,21.92c-.15,4.76-.24,9.54-.24,14.35a470,470,0,0,0,3.6,58.1l79.22,14.53a386.43,386.43,0,0,0,22.4,75.48l-58.45,55.44a465.71,465.71,0,0,0,36.76,62.51l76.92-24a392,392,0,0,0,54.89,56.35l-26,76.26a463.9,463.9,0,0,0,61.53,38.39l57-57a386.21,386.21,0,0,0,74.87,24.4l12.42,79.59a468.37,468.37,0,0,0,70.31,5.29c.68,0,1.35,0,2,0l24-76.89a389.34,389.34,0,0,0,77.61-13.08l48,64.72a463.1,463.1,0,0,0,66.49-28.92l-14.52-79.25a391.75,391.75,0,0,0,62.54-47.75l72.56,35A467,467,0,0,0,1803,865.35L1753.31,802a387.7,387.7,0,0,0,33.3-71.35Zm-448.35,66.26c-105.78,0-191.52-85.74-191.52-191.51S1313,411.1,1418.77,411.1s191.51,85.75,191.51,191.52S1524.54,794.13,1418.77,794.13Z"/><path class="cls-20" d="M1147.54,811.31a5,5,0,0,1-4-2,347.76,347.76,0,0,1-29.13-46.43,5,5,0,1,1,8.86-4.63,338.53,338.53,0,0,0,28.29,45.1,5,5,0,0,1-4,8Z"/><path class="cls-20" d="M1377.17,946.48a4.82,4.82,0,0,1-.65,0A346,346,0,0,1,1211.23,878a5,5,0,1,1,6.08-7.93,336,336,0,0,0,160.51,66.45,5,5,0,0,1-.65,10Z"/><rect class="cls-19" x="1425.23" y="371.37" width="909.11" height="504.38"/><rect class="cls-20" x="1435.23" y="382.37" width="873.11" height="459.38"/><g class="cls-22"><path class="cls-19" d="M2277.07,805.7H1449a2,2,0,0,1-2-2V388.87a2,2,0,0,1,2-2h828a2,2,0,0,1,2,2V803.7A2,2,0,0,1,2277.07,805.7Zm-826-4h824V390.87H1451Z"/><path class="cls-19" d="M2277.07,736.56H1449a2,2,0,0,1,0-4h828a2,2,0,0,1,0,4Z"/><path class="cls-19" d="M2277.07,667.42H1449a2,2,0,0,1,0-4h828a2,2,0,0,1,0,4Z"/><path class="cls-19" d="M2277.07,598.28H1449a2,2,0,0,1,0-4h828a2,2,0,0,1,0,4Z"/><path class="cls-19" d="M2277.07,529.14H1449a2,2,0,0,1,0-4h828a2,2,0,0,1,0,4Z"/><path class="cls-19" d="M2277.07,460H1449a2,2,0,0,1,0-4h828a2,2,0,0,1,0,4Z"/><path class="cls-19" d="M2139.07,805.7a2,2,0,0,1-2-2V388.87a2,2,0,1,1,4,0V803.7A2,2,0,0,1,2139.07,805.7Z"/><path class="cls-19" d="M2001.06,805.7a2,2,0,0,1-2-2V388.87a2,2,0,1,1,4,0V803.7A2,2,0,0,1,2001.06,805.7Z"/><path class="cls-19" d="M1863.05,805.7a2,2,0,0,1-2-2V388.87a2,2,0,0,1,4,0V803.7A2,2,0,0,1,1863.05,805.7Z"/><path class="cls-19" d="M1725.05,805.7a2,2,0,0,1-2-2V388.87a2,2,0,0,1,4,0V803.7A2,2,0,0,1,1725.05,805.7Z"/><path class="cls-19" d="M1587,805.7a2,2,0,0,1-2-2V388.87a2,2,0,1,1,4,0V803.7A2,2,0,0,1,1587,805.7Z"/></g><path class="cls-23" d="M1449,807.7a4,4,0,0,1-1.8-7.58l137.47-68.87L1655.6,663l65.84-137.62a3.92,3.92,0,0,1,1-1.26l74.84-66.69a4,4,0,0,1,6.29,1.3l63.1,135.68,75,133.21L1998,662.79a4.05,4.05,0,0,1,2.89-1.37,3.93,3.93,0,0,1,3,1.18l64.23,64.54,67.14-201.26a4,4,0,0,1,1-1.56l138-138.28a4,4,0,1,1,5.66,5.65L2142.56,529.3l-68.89,206.52a4,4,0,0,1-6.63,1.56l-65.78-66.09-57.36,65.89a4,4,0,0,1-6.5-.66l-77.83-138.28c0-.09-.1-.18-.14-.27L1798.53,467l-70.22,62.56L1662.5,667.15a3.76,3.76,0,0,1-.83,1.15l-71.85,69.14a3.82,3.82,0,0,1-1,.69l-138,69.14A4,4,0,0,1,1449,807.7Z"/><path class="cls-19" d="M1449,807.7a4,4,0,0,1-2.87-6.8l202.36-207.41a4,4,0,0,1,5.6-.13L1725,659.85l135.26-135.53a4,4,0,0,1,5.61-.06l68.94,66.36,63.4-66.24a4,4,0,0,1,2.85-1.24,4,4,0,0,1,2.87,1.18L2138,658.66l135.52-271.58a4,4,0,0,1,7.16,3.57l-138,276.56a4,4,0,0,1-2.94,2.16,4,4,0,0,1-3.47-1.12L2001.12,532.86l-63.35,66.19a4,4,0,0,1-5.66.11l-69-66.41-135.23,135.5a4,4,0,0,1-5.57.09l-70.79-66.46L1451.9,806.49A4,4,0,0,1,1449,807.7Z"/><path class="cls-19" d="M1218.51,171.32H1511a9.87,9.87,0,0,1,9.87,9.87V562.3a65.3,65.3,0,0,1-65.3,65.3h-247a0,0,0,0,1,0,0V181.19A9.87,9.87,0,0,1,1218.51,171.32Z"/><path class="cls-20" d="M1221.53,179H1501a9.37,9.37,0,0,1,9.37,9.37V552.93a62,62,0,0,1-62,62H1212.16a0,0,0,0,1,0,0V188.41A9.37,9.37,0,0,1,1221.53,179Z"/><path class="cls-19" d="M1387.66,525.52v-7.86c0-6.2-4.34-11.23-9.7-11.23H1078.89c-5.36,0-9.71,5-9.71,11.23v7.86c0,55.73,39,100.9,87.18,100.9h305.58C1413.79,626.42,1387,586.33,1387.66,525.52Z"/><path class="cls-20" d="M1380.31,533.33V527a9.09,9.09,0,0,0-9.09-9.08h-280a9.09,9.09,0,0,0-9.09,9.08v6.36A81.63,81.63,0,0,0,1163.71,615h298.23C1416.86,615,1380.31,593.15,1380.31,533.33Z"/><path class="cls-19" d="M1479.08,360.91h-213a12.23,12.23,0,0,1-12.22-12.22V233a12.24,12.24,0,0,1,12.22-12.23h213A12.25,12.25,0,0,1,1491.31,233V348.69A12.24,12.24,0,0,1,1479.08,360.91Zm-213-136.18a8.23,8.23,0,0,0-8.22,8.23V348.69a8.23,8.23,0,0,0,8.22,8.22h213a8.23,8.23,0,0,0,8.23-8.22V233a8.24,8.24,0,0,0-8.23-8.23Z"/><path class="cls-19" d="M1408.28,417.09H1174.12a6,6,0,1,1,0-12.1h234.16a6.05,6.05,0,0,1,0,12.1Z"/><path class="cls-19" d="M1408.28,439.16H1174.12a6.05,6.05,0,1,1,0-12.1h234.16a6.05,6.05,0,0,1,0,12.1Z"/><path class="cls-19" d="M1408.28,460.46H1174.12a6,6,0,1,1,0-12.1h234.16a6.05,6.05,0,0,1,0,12.1Z"/><rect class="cls-19" x="1410.12" y="239.14" width="13.81" height="12.43" rx="2.99"/><rect class="cls-19" x="1435.23" y="239.14" width="13.81" height="12.43" rx="2.99"/><rect class="cls-19" x="1460.34" y="239.14" width="13.81" height="12.43" rx="2.99"/><rect class="cls-19" x="1277.14" y="290.82" width="31.53" height="52.05"/><rect class="cls-19" x="1364.05" y="295.16" width="31.53" height="47.72"/><rect class="cls-19" x="1414.32" y="273.86" width="31.53" height="69.02"/><rect class="cls-19" x="1319.74" y="311.35" width="31.53" height="31.53"/><path class="cls-19" d="M3162.34,688h112.24c0,61.57-50.67,112.24-112.24,112.24S3050.1,749.55,3050.1,688s50.67-112.23,112.24-112.23Z"/><path class="cls-23" d="M3293.37,672.27A112.24,112.24,0,0,0,3181.14,560V672.27Z"/><path class="cls-23" d="M3068.9,672.27A112.24,112.24,0,0,0,3181.14,784.5C3119.57,784.5,3068.9,733.84,3068.9,672.27Z"/><path class="cls-23" d="M3181.14,560A112.24,112.24,0,0,0,3068.9,672.27C3068.9,610.7,3119.57,560,3181.14,560Z"/><path class="cls-23" d="M3181.14,784.5a112.23,112.23,0,0,0,112.23-112.23C3293.37,733.84,3242.71,784.5,3181.14,784.5Z"/><circle class="cls-23" cx="1799.89" cy="460.46" r="9.95" transform="translate(-57.64 425.85) rotate(-13.28)"/><circle class="cls-19" cx="1651.89" cy="596.28" r="9.95" transform="translate(-92.81 395.48) rotate(-13.28)"/><circle class="cls-19" cx="1863.05" cy="527.14" r="9.95"/><circle class="cls-19" cx="2001.06" cy="527.14" r="9.95"/><circle class="cls-23" cx="2139.07" cy="527.14" r="9.95"/><circle class="cls-24" cx="1134.86" cy="626.42" r="53.7" transform="translate(-110.55 985.95) rotate(-45)"/><path class="cls-20" d="M1129.54,645.18h-.12a3,3,0,0,1-2.14-1l-14.58-16.58a3,3,0,1,1,4.5-4l12.5,14.2,28.9-28.28a3,3,0,1,1,4.2,4.28l-31.17,30.5A3,3,0,0,1,1129.54,645.18Z"/><rect class="cls-19" x="376.1" y="303.06" width="35.75" height="195.01"/><rect class="cls-19" x="527.59" y="359.8" width="35.75" height="138.28"/><rect class="cls-19" x="603.34" y="303.06" width="35.75" height="195.01"/><rect class="cls-19" x="679.09" y="428.93" width="35.75" height="69.14"/><rect class="cls-19" x="451.85" y="243.69" width="35.75" height="254.38"/><rect class="cls-19" x="755.09" y="359.8" width="35.75" height="138.28"/><rect class="cls-19" x="2575.57" y="320.71" width="35.75" height="103.43"/><rect class="cls-19" x="3033.75" y="354.36" width="35.75" height="69.78"/><rect class="cls-19" x="2727.06" y="182.14" width="35.75" height="242"/><rect class="cls-19" x="2802.81" y="315.37" width="35.75" height="108.78"/><rect class="cls-19" x="2878.55" y="284.58" width="35.75" height="139.57"/><rect class="cls-19" x="2651.32" y="252.42" width="35.75" height="171.72"/><rect class="cls-19" x="2954.55" y="212.64" width="35.75" height="211.5"/><g class="cls-25"><path class="cls-3" d="M390.66,910.52,262.1,831.91,238.85,980.8A150.87,150.87,0,0,0,390.66,910.52Z"/><path class="cls-24" d="M390.79,910.35c.35-.57.8-1.35.79-1.32a150.71,150.71,0,0,0,3.33-148.34c-45.49,23.84-18.4,9.36-132.81,71.22C390.87,910.65,370.87,898.51,390.79,910.35Z"/><path class="cls-19" d="M120.79,779.84,262.1,831.91l132.57-71.68C332.66,645.55,165.75,659.31,120.79,779.84Z"/><path class="cls-23" d="M238.85,980.8,262.1,831.91,120.79,779.84C87.18,869.93,146.83,966.29,238.85,980.8Z"/><path class="cls-2" d="M397.46,908.82a156.29,156.29,0,0,0,3.9-146.53l.09,0-2.38-4.4-.15-.26L397,754l-.07,0c-15-26.07-36.39-46.85-62.11-60.25a155.77,155.77,0,0,0-82.84-17c-60.42,4.2-111.33,41.09-134,96.69l-.09,0-1.74,4.66-1.75,4.71.08,0a153.75,153.75,0,0,0,13.18,127,155.84,155.84,0,0,0,105.54,75V985l4.93.77,5,.78v-.08a155.85,155.85,0,0,0,149.36-69.32l.1.06,1-1.6s1.59-2.62,1.59-2.62c.25-.4.54-.9.71-1.18l.1-.18.08-.13,1.58-2.59ZM382.39,772.89l10.38-5.43a146.26,146.26,0,0,1-3.75,136l-.95-.56c-5.26-3.11-7.54-4.47-18-10.85l-97.95-59.89,81.31-44C365.37,781.79,370.26,779.23,382.39,772.89Zm-255.08,4c21.3-51.86,68.89-86.24,125.33-90.16,55.78-3.88,107.11,23.42,135.18,71.5l-39.15,21.17c-8.08,4.35-19.38,10.46-38.3,20.7l-46.91,25.37-1.2.66-3.94-2.41-.21,1.37L196.19,802.3Zm8.93,127.91a143.83,143.83,0,0,1-12.43-118.54l93.09,34.3,39.63,14.61L234.7,975A145.93,145.93,0,0,1,136.24,904.82Zm108.33,71.73,21.32-136.46L321.35,874l43.21,26.42,19.15,11.71A145.12,145.12,0,0,1,244.57,976.55Z"/></g><path class="cls-19" d="M171.63,1155.76a44.88,44.88,0,1,1-44.88-44.88A44.87,44.87,0,0,1,171.63,1155.76Z"/><path class="cls-20" d="M159.78,1157.75a22.52,22.52,0,1,1-22.52-22.51A22.51,22.51,0,0,1,159.78,1157.75Z"/><rect class="cls-19" x="3059.7" y="984.5" width="170.65" height="170.65" rx="29.63"/><path class="cls-20" d="M3252.62,1186.27h-111.4a34.66,34.66,0,0,1-34.62-34.62v-111.4a34.66,34.66,0,0,1,34.62-34.63h111.4a34.67,34.67,0,0,1,34.63,34.63v111.4A34.67,34.67,0,0,1,3252.62,1186.27Zm-111.4-170.65a24.65,24.65,0,0,0-24.62,24.63v111.4a24.64,24.64,0,0,0,24.62,24.62h111.4a24.65,24.65,0,0,0,24.63-24.62v-111.4a24.66,24.66,0,0,0-24.63-24.63Z"/><path class="cls-19" d="M1239,1161.43l-28.43-32.79a12,12,0,0,1,1.2-16.93l32.79-28.42a12,12,0,0,1,16.93,1.2l28.43,32.79a12,12,0,0,1-1.21,16.93l-32.78,28.42A12,12,0,0,1,1239,1161.43Z"/><path class="cls-19" d="M1409.71,1188.86a25.11,25.11,0,1,1-25.1-25.11A25.11,25.11,0,0,1,1409.71,1188.86Z"/><path class="cls-19" d="M3558.13,1111.09a25,25,0,1,1-25-25A25,25,0,0,1,3558.13,1111.09Z"/><path class="cls-19" d="M2911.09,601a25,25,0,1,1-25-25A25,25,0,0,1,2911.09,601Z"/><circle class="cls-19" cx="3368.42" cy="910.9" r="19.5" transform="translate(1929.72 4089.92) rotate(-80.78)"/><rect class="cls-19" x="2268.49" y="475.35" width="430.9" height="194.73" rx="8.17"/><rect class="cls-20" x="2280.27" y="526.52" width="407.34" height="134.43" rx="6.6"/><rect class="cls-20" x="2286.25" y="489.68" width="16.88" height="15.19" rx="3.66"/><rect class="cls-20" x="2316.94" y="489.68" width="16.88" height="15.19" rx="3.66"/><rect class="cls-20" x="2347.64" y="489.68" width="16.88" height="15.19" rx="3.66"/><path class="cls-19" d="M2671,556H2455.57a6.45,6.45,0,0,1,0-12.89H2671a6.45,6.45,0,1,1,0,12.89Z"/><path class="cls-19" d="M2509,655.42H2293.51a6.45,6.45,0,0,1,0-12.89H2509a6.45,6.45,0,0,1,0,12.89Z"/><rect class="cls-19" x="2524.17" y="642.53" width="26.7" height="12.89" rx="2.2"/><path class="cls-19" d="M2560,642.53h22.3a2.2,2.2,0,0,1,2.2,2.2v8.48a2.2,2.2,0,0,1-2.2,2.2H2560a2.21,2.21,0,0,1-2.21-2.21v-8.48A2.2,2.2,0,0,1,2560,642.53Z"/><path class="cls-19" d="M2673.1,584.06H2316.3a4.37,4.37,0,0,1,0-8.74h356.8a4.37,4.37,0,1,1,0,8.74Z"/><path class="cls-19" d="M2673.1,602.94H2316.3a4.38,4.38,0,0,1,0-8.75h356.8a4.38,4.38,0,1,1,0,8.75Z"/><circle class="cls-19" cx="137.27" cy="470.41" r="49.49" transform="translate(-352.1 495.93) rotate(-76.72)"/><path class="cls-19" d="M827.74,616.15H472.1a6.61,6.61,0,1,1,0-13.21H827.74a6.61,6.61,0,0,1,0,13.21Z"/><path class="cls-19" d="M827.74,649.14H472.1a6.61,6.61,0,1,1,0-13.21H827.74a6.61,6.61,0,0,1,0,13.21Z"/><path class="cls-21" d="M2163.27,1120.53a249.86,249.86,0,0,0,1.57-27.78c0-5-.17-9.87-.45-14.76l-45.91-14.85a202.13,202.13,0,0,0-16.25-55l30.43-37.46a248,248,0,0,0-24.11-35l-45.91,15a203.77,203.77,0,0,0-45.45-34.93l2.61-48.24a244.91,244.91,0,0,0-40.08-14.2l-28.35,39.12a203.29,203.29,0,0,0-57.31-1.5l-26.24-40.57A244.77,244.77,0,0,0,1827,862.34l.06,48.3a203.42,203.42,0,0,0-47.24,32.5l-45-17.38a248.64,248.64,0,0,0-25.94,33.72l28.43,39a201.86,201.86,0,0,0-19.17,54.06L1671.52,1065a249.87,249.87,0,0,0-1.56,27.78c0,5,.16,9.88.45,14.76l45.91,14.85a201.43,201.43,0,0,0,16.25,55l-30.44,37.46a248,248,0,0,0,24.11,35l45.92-15a204.1,204.1,0,0,0,45.45,34.94l-2.62,48.23a246.22,246.22,0,0,0,40.08,14.21l28.35-39.13a203.9,203.9,0,0,0,57.31,1.51l26.25,40.57a246.29,246.29,0,0,0,40.78-12l-.06-48.31a204.12,204.12,0,0,0,47.24-32.49l45,17.37a247.15,247.15,0,0,0,25.93-33.72l-28.42-39a201.5,201.5,0,0,0,19.16-54.06ZM1917.4,1189.8a97,97,0,1,1,97-97A97,97,0,0,1,1917.4,1189.8Z"/><path class="cls-20" d="M2049.76,1204.81a5,5,0,0,1-3.84-8.2,162.82,162.82,0,0,0,28.69-156.82,5,5,0,1,1,9.45-3.25A172.79,172.79,0,0,1,2053.61,1203,5,5,0,0,1,2049.76,1204.81Z"/><path class="cls-20" d="M2035.71,975.75a5,5,0,0,1-3.42-1.36,161.47,161.47,0,0,0-56-34.48,5,5,0,0,1,3.41-9.4,171.34,171.34,0,0,1,59.4,36.6,5,5,0,0,1-3.43,8.64Z"/><path class="cls-20" d="M1879.75,935.3a5,5,0,0,1-1.22-9.85,173.06,173.06,0,0,1,42.36-5.24,5,5,0,1,1,0,10,162.92,162.92,0,0,0-39.91,4.94A5.17,5.17,0,0,1,1879.75,935.3Z"/></g></g></svg>